<svg xmlns="http://www.w3.org/2000/svg" width="220" height="88" viewBox="0 0 220 88" fill="#013a51" fill-rule="evenodd"><path id="logo-deliveroo-home" class="cls-1" d="M1136.05,1501.42h4.57l-0.78-3.57v-21.21h-4.36v9.68a6.8,6.8,0,0,0-5.25-2.42c-4.36,0-7.75,3.65-7.75,8.95,0,5.33,3.39,8.94,7.75,8.94a6.768,6.768,0,0,0,5.33-2.54l0.49,2.17h0Zm86.23-12.76a4.034,4.034,0,0,1,2.44.78l2.08-4.68a5.942,5.942,0,0,0-3.18-.86,5.255,5.255,0,0,0-4.64,2.58l-0.45-2.17h-4.48l0.73,3.36v13.79h4.36v-10.95a3.34,3.34,0,0,1,3.14-1.85h0Zm12.75,8.53a4.308,4.308,0,0,1-.31-8.61,1.6,1.6,0,0,1,.31,0,4.107,4.107,0,0,1,4.4,3.8c0.01,0.17.01,0.34,0.01,0.51a4.171,4.171,0,0,1-4,4.31,2.841,2.841,0,0,1-.41-0.01h0Zm-108.31-4.35a4.4,4.4,0,1,1,4.55,4.31h-0.15a4.112,4.112,0,0,1-4.39-3.84c-0.01-.16-0.01-0.31-0.01-0.47h0Zm127.67,4.35a4.308,4.308,0,0,1-.31-8.61,1.605,1.605,0,0,1,.31,0,4.092,4.092,0,0,1,4.39,3.8,2.9,2.9,0,0,1,.01.51,4.2,4.2,0,0,1-4.08,4.31c-0.11,0-.21,0-0.32-0.01h0Zm-103.18-8.9a3.905,3.905,0,0,1,4.2,3.04h-8.4c0.45-2.01,1.96-3.04,4.2-3.04h0Zm52.12,0a3.905,3.905,0,0,1,4.2,3.04h-8.4a3.924,3.924,0,0,1,4.2-3.04h0Zm-21.27,13.13h7.01l4.56-17.19h-4.77l-3.3,13.95-3.33-13.91h-4.69l4.52,17.15h0Zm-11.21,0h4.36v-17.19h-4.36v17.19h0Zm-18.99.33a12.648,12.648,0,0,0,6.81-1.97l-1.67-3.77a10.607,10.607,0,0,1-5.1,1.31c-2.28,0-3.87-.9-4.6-2.59h12.31a10.379,10.379,0,0,0,.2-2.01c0-5.33-3.67-8.86-8.52-8.86-4.93,0-8.51,3.61-8.51,8.95-0.04,5.45,3.54,8.94,9.08,8.94h0Zm111.13-8.91c0-5.33-3.67-8.94-8.6-8.94-4.97,0-8.6,3.65-8.6,8.94s3.67,8.95,8.6,8.95,8.6-3.61,8.6-8.95h0Zm-59.05,8.95a12.312,12.312,0,0,0,6.81-1.97l-1.67-3.77a10.607,10.607,0,0,1-5.1,1.31c-2.28,0-3.87-.9-4.6-2.58h12.3a9.8,9.8,0,0,0,.21-2.01c0-5.34-3.67-8.87-8.52-8.87-4.93,0-8.52,3.61-8.52,8.95,0,5.49,3.55,8.94,9.09,8.94h0Zm31.09,0c4.97,0,8.6-3.65,8.6-8.94s-3.67-8.95-8.6-8.95c-4.97,0-8.59,3.65-8.59,8.95s3.62,8.94,8.59,8.94h0Zm-72.45-.37h4.36v-24.78h-4.36v24.78h0Zm10.48-19.53a2.79,2.79,0,1,0-2.78-2.79,2.749,2.749,0,0,0,2.71,2.79h0.07ZM1098.12,1461l-2.49,23.8-4.24-20.07-13.36,2.84,4.2,20.06-19.24,4.11,3.42,16,33.87,7.26,7.74-17.43,3.67-35.13-13.57-1.44h0Zm-10.72,34.55a2.45,2.45,0,0,1-2.61.25c-0.98-.33-1.39-1.48-1.06-2.96,0.29-1.06,1.55-1.23,2.24-1.23a1.51,1.51,0,0,1,.73.17,2.164,2.164,0,0,1,.7,3.77h0Zm9.82,1.07c-0.53.9-1.83,1.02-3.18,0.37a2.388,2.388,0,0,1-.32-3.24,2.1,2.1,0,0,1,1.42-.95,2.488,2.488,0,0,1,2.33,1.23,2.521,2.521,0,0,1-.25,2.59h0Z" transform="translate(-1053 -1444)"></path></svg>