<svg xmlns="http://www.w3.org/2000/svg" width="220" height="88" viewBox="0 0 220 88" fill="#013a51" fill-rule="evenodd"><path id="logo-adidas-home" class="cls-1" d="M1917.99,1508.21h-4.36a2.882,2.882,0,0,0-.64-1.51,3.248,3.248,0,0,0-2.36-.71,3.525,3.525,0,0,0-2.25.54,1.4,1.4,0,0,0-.49,1.11c0,0.66.92,1.19,2.74,1.59a42.141,42.141,0,0,1,4.49,1.16,5.958,5.958,0,0,1,.6.23,4.214,4.214,0,0,1,2.77,3.96,5.016,5.016,0,0,1-2.7,4.72,6.948,6.948,0,0,1-.67.33,10.18,10.18,0,0,1-4.04.75,10.992,10.992,0,0,1-5.5-1.2,5.229,5.229,0,0,1-1.98-1.92,5.36,5.36,0,0,1-.66-2.71h4.58a2.153,2.153,0,0,0,.84,1.82,4.739,4.739,0,0,0,2.84.66,3.443,3.443,0,0,0,2.26-.63,1.406,1.406,0,0,0,.57-1.11c0-.71-0.9-1.26-2.69-1.65a29.267,29.267,0,0,1-5.06-1.37,4.18,4.18,0,0,1-2.74-4,5.227,5.227,0,0,1,1.43-3.73,7.127,7.127,0,0,1,5.41-1.9,11.244,11.244,0,0,1,4.74.84,1.509,1.509,0,0,1,.28.15,4.733,4.733,0,0,1,1.94,1.84A5.5,5.5,0,0,1,1917.99,1508.21Zm-2.33-10.61a0.38,0.38,0,0,0-.06-0.22,0.338,0.338,0,0,0-.2-0.15,2.122,2.122,0,0,0-.28-0.05h-0.7v0.84h0.7a0.576,0.576,0,0,0,.4-0.12A0.389,0.389,0,0,0,1915.66,1497.6Zm0.36-.45a0.668,0.668,0,0,1,.13.41,0.748,0.748,0,0,1-.22.54,0.864,0.864,0,0,1-.59.25,0.618,0.618,0,0,1,.24.15l0.42,0.56,0.33,0.55h-0.54l-0.25-.45a2.791,2.791,0,0,0-.42-0.6,0.311,0.311,0,0,0-.06-0.04l-0.36-.11h-0.28v1.2h-0.45v-2.82h0.98c0.06,0,.12.02,0.17,0.02a1.761,1.761,0,0,1,.54.07A0.694,0.694,0,0,1,1916.02,1497.15Zm1.28,1.02a2.1,2.1,0,0,0-.29-1.09,1.975,1.975,0,0,0-.81-0.81,2.355,2.355,0,0,0-1.07-.29h-0.01a2.29,2.29,0,0,0-1.07.29,2.061,2.061,0,0,0-.82.81,2.112,2.112,0,0,0,0,2.17,2.094,2.094,0,0,0,.8.79,2.147,2.147,0,0,0,1.09.29h0.01a2.147,2.147,0,0,0,1.09-.29,2,2,0,0,0,.79-0.79A2.112,2.112,0,0,0,1917.3,1498.17Zm0.44,0a2.557,2.557,0,0,1-.35,1.29,2.337,2.337,0,0,1-.96.96,2.593,2.593,0,0,1-1.3.35h-0.01a2.566,2.566,0,0,1-1.3-.35,2.28,2.28,0,0,1-.96-0.96,2.557,2.557,0,0,1-.35-1.29,2.611,2.611,0,0,1,.35-1.32,2.446,2.446,0,0,1,.98-0.96,2.848,2.848,0,0,1,1.28-.34h0.01a2.725,2.725,0,0,1,1.28.34,2.385,2.385,0,0,1,.98.96A2.611,2.611,0,0,1,1917.74,1498.17Zm-25.6-21.18,12.35,20.51h-19.85l-11.79-19.59-8.94-14.83,8.94-5.35,5.62-3.37Zm8.97,34.74v8.41H1897v-0.93a8.833,8.833,0,0,1-4.82,1.43h-0.04a8.905,8.905,0,0,1,0-17.81h0.04a8.833,8.833,0,0,1,4.82,1.43v-0.98h4.11v8.45Zm-4.11.93v-1.86a4.925,4.925,0,0,0-4.82-3.95h-0.04a4.9,4.9,0,0,0,0,9.79h0.04A4.942,4.942,0,0,0,1897,1512.66Zm-15.19-.93v8.41h-4.1v-0.93a8.858,8.858,0,0,1-4.82,1.43h-0.04a8.905,8.905,0,0,1,0-17.81h0.04a8.858,8.858,0,0,1,4.82,1.43v-6.76h4.1v14.23Zm-4.1.93v-1.86a4.925,4.925,0,0,0-4.82-3.95h-0.04a4.9,4.9,0,0,0,0,9.79h0.04A4.942,4.942,0,0,0,1877.71,1512.66Zm-4.86-23.23,4.84,8.07h-19.83l-11.02-18.26-0.48-.79,0.48-.29,14.1-8.45Zm-14.98,13.4h4.47v17.31h-4.47v-17.31Zm0-5.24h4.47v3.91h-4.47v-3.91Zm-2.04,14.14v8.41h-4.11v-0.93a8.917,8.917,0,0,1-4.83,1.43h-0.05a8.905,8.905,0,0,1,0-17.81h0.05a8.917,8.917,0,0,1,4.83,1.43v-6.76h4.11v14.23Zm-4.11.93v-1.86a4.928,4.928,0,0,0-4.83-3.95h-0.05a4.9,4.9,0,0,0,0,9.79h0.05A4.944,4.944,0,0,0,1851.72,1512.66Zm-4.88-21.91,4.07,6.75h-19.85l-2.23-3.71,14.58-8.72Zm-10.5,20.98v8.41h-4.11v-0.93a8.892,8.892,0,0,1-4.83,1.43h-0.05a8.905,8.905,0,0,1,0-17.81h0.05a8.892,8.892,0,0,1,4.83,1.43v-0.98h4.11v8.45Zm-4.11.93v-1.86a4.92,4.92,0,0,0-4.83-3.95h-0.05a4.9,4.9,0,0,0,0,9.79h0.05A4.936,4.936,0,0,0,1832.23,1512.66Z" transform="translate(-1758.485 -1443.5)"></path></svg>