<svg xmlns="http://www.w3.org/2000/svg" width="220" height="88" viewBox="0 0 220 88" fill="#013a51" fill-rule="evenodd"><path id="logo-easygroup-home" class="cls-1" d="M706.706,1627.71h-8.432a0.473,0.473,0,0,0-.554.36,0.336,0.336,0,0,0-.011.1,2.763,2.763,0,0,0,1.285,2.17,4.447,4.447,0,0,0,2.725,1.01,6.813,6.813,0,0,0,1.9-.3,6.253,6.253,0,0,0,1.748-.81,1.692,1.692,0,0,1,.978-0.41,1.338,1.338,0,0,1,.925.56,1.765,1.765,0,0,1,.463,1.16,3.273,3.273,0,0,1-1.644,2.47,10.828,10.828,0,0,1-6.633,2.12,8.971,8.971,0,0,1-8.381-4.74,8.635,8.635,0,0,1-1.079-4.19,8.475,8.475,0,0,1,1.851-5.35,9.976,9.976,0,0,1,8.02-3.83,9.1,9.1,0,0,1,5.811,1.91,8.224,8.224,0,0,1,1.953,2.27,5.867,5.867,0,0,1,.822,2.88,3.39,3.39,0,0,1-.463,1.87A1.573,1.573,0,0,1,706.706,1627.71Zm-7.969-3.28h1.8a0.955,0.955,0,0,0,1.123-.77,1,1,0,0,0,.009-0.29,2.247,2.247,0,0,0-.567-1.56,1.865,1.865,0,0,0-1.439-.6,1.937,1.937,0,0,0-1.594.75,2.529,2.529,0,0,0-.565,1.47,1.016,1.016,0,0,0,.257.75,1.53,1.53,0,0,0,.974.25h0Zm21.183-6.4a8.564,8.564,0,0,1,5.3,1.56,4.662,4.662,0,0,1,1.6,1.92,7.587,7.587,0,0,1,.461,2.92l-0.051,2.63a9.719,9.719,0,0,0,.411,3.53,3.118,3.118,0,0,0,.36.51,2.907,2.907,0,0,0,.772.2,0.647,0.647,0,0,1,.568.73,0.08,0.08,0,0,1,0,.02,2.927,2.927,0,0,1-.668,1.77,6.084,6.084,0,0,1-4.628,2.27,3.66,3.66,0,0,1-2.99-1.26,0.98,0.98,0,0,0-.72-0.46,1.807,1.807,0,0,0-.977.46,6.883,6.883,0,0,1-4.11,1.31,6.554,6.554,0,0,1-3.8-1.01,4.884,4.884,0,0,1-1.491-1.71,4.791,4.791,0,0,1-.566-2.22,4.338,4.338,0,0,1,1.491-3.23c1.594-1.47,3.908-2.22,7.044-2.27a2.56,2.56,0,0,0,1.337-.21,1.117,1.117,0,0,0,.257-0.95,6.9,6.9,0,0,0-.411-2.73,1.388,1.388,0,0,0-1.286-.86,1.709,1.709,0,0,0-.976.31,8.545,8.545,0,0,0-1.08,1.16c-1.08,1.51-2.211,2.27-3.342,2.27a2.052,2.052,0,0,1-1.44-.51,1.828,1.828,0,0,1-.566-1.36,2.813,2.813,0,0,1,.669-1.72,5.687,5.687,0,0,1,1.9-1.46,16.362,16.362,0,0,1,6.942-1.61h0Zm-1.187,10.24a1.787,1.787,0,0,0-1.388.66,1.983,1.983,0,0,0-.566,1.51,2.276,2.276,0,0,0,.412,1.37,1.232,1.232,0,0,0,1.079.5c0.978,0,1.44-.81,1.44-2.37a2.63,2.63,0,0,0-.206-1.31,0.83,0.83,0,0,0-.769-0.36h0Zm19.025-10.24a18.106,18.106,0,0,1,2.931.4,2.991,2.991,0,0,0,.668.05,4.386,4.386,0,0,0,1.183-.3,1.982,1.982,0,0,1,.72-0.15,2.265,2.265,0,0,1,1.7,1.06,8.226,8.226,0,0,1,1.13,1.81,3.944,3.944,0,0,1,.412,1.72,1.455,1.455,0,0,1-.514,1.16,1.885,1.885,0,0,1-1.286.45,2.14,2.14,0,0,1-1.13-.3,15.423,15.423,0,0,1-1.595-1.31,3.286,3.286,0,0,0-1.9-1.11,1.143,1.143,0,0,0-.873.35,1.1,1.1,0,0,0-.36.86c0,0.55.566,1.11,1.7,1.62a16.317,16.317,0,0,1,4.679,2.92,4.375,4.375,0,0,1,1.388,3.28,4.858,4.858,0,0,1-2.211,4.09,7.507,7.507,0,0,1-4.626,1.41c-0.463,0-1.337-.1-2.571-0.25-1.187-.15-1.8-0.2-1.955-0.2a2.151,2.151,0,0,0-.565.05,6.609,6.609,0,0,1-.771.05,2.077,2.077,0,0,1-1.337-.41,7.345,7.345,0,0,1-2.009-4.49c0-1.06.412-1.61,1.286-1.61a1.466,1.466,0,0,1,.925.3c0.257,0.2.874,0.81,1.8,1.77a9.323,9.323,0,0,0,1.234,1.06,1.872,1.872,0,0,0,1.028.3,1.492,1.492,0,0,0,.977-0.3,1,1,0,0,0,.36-0.81c0-.55-0.463-1.01-1.389-1.46a12.577,12.577,0,0,1-4.164-2.88,5.017,5.017,0,0,1-1.285-3.43,5.351,5.351,0,0,1,1.337-3.63A6.689,6.689,0,0,1,737.758,1618.03Zm27.56,8.73-2.366,6.4a20.127,20.127,0,0,1-1.8,3.89,13.11,13.11,0,0,1-2.01,2.57,7.867,7.867,0,0,1-5.655,2.17,6.477,6.477,0,0,1-4.319-1.37,3.314,3.314,0,0,1-1.285-2.72,3.216,3.216,0,0,1,.874-2.27,2.971,2.971,0,0,1,2.211-.91,2.835,2.835,0,0,1,2.108.86,2.616,2.616,0,0,1,.514.7,8.549,8.549,0,0,1,.36,1.31,0.878,0.878,0,0,0,.925.76,1.186,1.186,0,0,0,.926-0.45,1.787,1.787,0,0,0,.36-1.17,7.88,7.88,0,0,0-.926-2.77l-4.315-9.07a9.447,9.447,0,0,0-1.028-1.77,4.994,4.994,0,0,0-1.491-.86,1.316,1.316,0,0,1-.617-0.55,1.637,1.637,0,0,1-.256-0.81c0-1.06,1.079-1.77,3.187-2.12a27.934,27.934,0,0,1,4.833-.35,9.733,9.733,0,0,1,3.034.4,1.852,1.852,0,0,1,1.49,1.77,2.138,2.138,0,0,1-.411,1.06,1.82,1.82,0,0,0-.411,1.01,2.128,2.128,0,0,0,.206.91c0.154,0.35.411,0.8,0.822,1.56a2.145,2.145,0,0,0,1.182,1.26,1.562,1.562,0,0,0,1.131-1.11,4.193,4.193,0,0,0,.618-2.12,1.788,1.788,0,0,0-.463-1.31,2.339,2.339,0,0,1-.669-1.36,1.728,1.728,0,0,1,1.234-1.47,8.383,8.383,0,0,1,3.288-.55c2.571,0,3.8.6,3.8,1.81a1.417,1.417,0,0,1-.411,1.06,3.95,3.95,0,0,1-1.439.76,2.852,2.852,0,0,0-1.388,1.06,15.374,15.374,0,0,0-1.848,3.79h0Zm19.589-15.75a14.755,14.755,0,0,1,4.475.66,4.742,4.742,0,0,0,1.285.3,6.441,6.441,0,0,0,1.492-.4,2.017,2.017,0,0,1,.771-0.1,2.634,2.634,0,0,1,1.953,1.16,6.557,6.557,0,0,1,1.492,4.09,3.87,3.87,0,0,1-.771,2.47,2.673,2.673,0,0,1-2.057.96,3.417,3.417,0,0,1-2.056-.76,12.52,12.52,0,0,1-1.492-1.67,5.745,5.745,0,0,0-4.576-2.36,4.484,4.484,0,0,0-3.7,1.66,7.156,7.156,0,0,0-1.388,4.54,11.735,11.735,0,0,0,2.211,7.22,6.368,6.368,0,0,0,2,1.71,4.5,4.5,0,0,0,2.314.66,2.116,2.116,0,0,0,1.542-.61,2.066,2.066,0,0,0,.617-1.56,1.361,1.361,0,0,0-.514-1.21,0.612,0.612,0,0,0-.36-0.15c-0.1,0-.462-0.05-1.029-0.05a1.755,1.755,0,0,1-1.284-.51,1.614,1.614,0,0,1-.515-1.21c0-.96.669-1.66,2-2.07a17.165,17.165,0,0,1,5.039-.66,18.966,18.966,0,0,1,5.142.61c1.285,0.41,1.954,1.11,1.954,2.17a1.536,1.536,0,0,1-.463,1.11,1.9,1.9,0,0,1-1.183.56,1.846,1.846,0,0,0-.822.25,2.506,2.506,0,0,0-.412.91,9.233,9.233,0,0,1-3.033,4.69,11.454,11.454,0,0,1-3.753,2.02,14.26,14.26,0,0,1-4.628.71,15.5,15.5,0,0,1-7.25-1.77,12.443,12.443,0,0,1-6.633-11,11.6,11.6,0,0,1,1.749-6.1,12.635,12.635,0,0,1,5.244-4.8,14.632,14.632,0,0,1,6.632-1.47h0Zm23.806,7.12a1.881,1.881,0,0,1,1.182.25,4.528,4.528,0,0,1,.36,1.72,0.658,0.658,0,0,0,.56.75h0.006a0.8,0.8,0,0,0,.669-0.5,4.361,4.361,0,0,1,3.752-2.22,3.529,3.529,0,0,1,2.674,1.06,3.426,3.426,0,0,1,.822,1.31,4.421,4.421,0,0,1,.308,1.56,4.723,4.723,0,0,1-1.439,3.18,4,4,0,0,1-2.831,1.06,3.414,3.414,0,0,1-1.543-.3,7.582,7.582,0,0,1-1.644-1.31,0.969,0.969,0,0,0-.719-0.36,0.668,0.668,0,0,0-.669.56,10.8,10.8,0,0,0-.154,2.32,19.352,19.352,0,0,0,.2,3.63,1.759,1.759,0,0,0,.366.76,2.488,2.488,0,0,0,.976.4c1.08,0.31,1.644.86,1.644,1.67a1.667,1.667,0,0,1-.514,1.26,2.635,2.635,0,0,1-1.389.71,26.287,26.287,0,0,1-5.09.35,16.742,16.742,0,0,1-4.831-.55,1.853,1.853,0,0,1-1.49-1.72,2.09,2.09,0,0,1,1.079-1.66,2.264,2.264,0,0,0,.72-0.61,1.683,1.683,0,0,0,.257-0.76,37.432,37.432,0,0,0,.308-5.95,2.224,2.224,0,0,0-.205-1.16,1.237,1.237,0,0,0-.72-0.56,1.612,1.612,0,0,1-1.286-1.41,1.815,1.815,0,0,1,.875-1.46,11.115,11.115,0,0,1,2.931-1.21,19.813,19.813,0,0,1,4.831-.81h0Zm22.057-.1a10.306,10.306,0,0,1,5.81,1.66,9.394,9.394,0,0,1,2.88,3.13,8.826,8.826,0,0,1,1.131,4.19,7.817,7.817,0,0,1-3.6,6.51,12.588,12.588,0,0,1-7.815,2.57,10.039,10.039,0,0,1-6.993-2.42,7.75,7.75,0,0,1-2.571-6.1,8.5,8.5,0,0,1,3.188-6.81,11.8,11.8,0,0,1,7.97-2.73h0Zm-1.439,4.08a1.7,1.7,0,0,0-1.285.56,2.413,2.413,0,0,0-.463,1.51,15.09,15.09,0,0,0,.411,2.88,16.088,16.088,0,0,0,.977,3.23,1.921,1.921,0,0,0,1.8,1.46c1.081,0,1.6-.65,1.6-2.02a17.236,17.236,0,0,0-.412-3.38,14.7,14.7,0,0,0-.977-3.08,1.858,1.858,0,0,0-1.644-1.16h0Zm22.366-3.07v9.58c0,2.07.669,3.08,2.057,3.08a2.066,2.066,0,0,0,1.028-.3,1.909,1.909,0,0,0,.72-0.71,11.041,11.041,0,0,0,.411-3.78,23.718,23.718,0,0,0-.205-3.99,1.572,1.572,0,0,0-.257-0.65,1.848,1.848,0,0,0-.669-0.46,1.6,1.6,0,0,1-1.028-1.37c0-.7.565-1.26,1.748-1.51a27.454,27.454,0,0,1,6.632-.81,1.641,1.641,0,0,1,1.8,1.92v0.81c0,0.55-.052,1.26-0.052,2.07v7.77a1.517,1.517,0,0,0,1.028,1.11,1.4,1.4,0,0,1,.875,1.26c0,1.06-1.286,1.86-3.857,2.47a18.378,18.378,0,0,1-4.37.5,2.1,2.1,0,0,1-1.183-.2,1.05,1.05,0,0,1-.36-0.75c-0.051-.71-0.308-1.12-0.668-1.12a1.453,1.453,0,0,0-.411.11c-0.1.05-.463,0.3-1.081,0.7a6.9,6.9,0,0,1-3.907,1.21c-2.314,0-3.959-.65-4.885-1.96-0.822-1.11-1.182-2.93-1.182-5.55v-3.28a7.41,7.41,0,0,0-.257-2.22,2.152,2.152,0,0,0-1.029-1.11,3.325,3.325,0,0,1-.874-0.56,1.053,1.053,0,0,1-.2-0.6c0-.92.668-1.52,2.057-1.77a34.026,34.026,0,0,1,7.044-.76c0.72,0.01,1.08.26,1.08,0.87h0Zm23.96-.91a2.648,2.648,0,0,1,1.389.2,1.013,1.013,0,0,1,.256.91c0,0.45.155,0.65,0.412,0.65a4.149,4.149,0,0,0,1.187-.65,7.75,7.75,0,0,1,1.954-.86,7.53,7.53,0,0,1,2.159-.35,6.1,6.1,0,0,1,4.11,1.56,7.392,7.392,0,0,1,2.108,2.98,10.351,10.351,0,0,1,.771,3.98,9.548,9.548,0,0,1-3.085,7.32,7.525,7.525,0,0,1-5.347,2.27,7.9,7.9,0,0,1-3.136-.71,1.529,1.529,0,0,0-.515-0.15c-0.359,0-.565.36-0.565,1.06a2.187,2.187,0,0,0,.976,2.02,12.321,12.321,0,0,1,1.081.81,1.116,1.116,0,0,1,.153.65,1.753,1.753,0,0,1-1.182,1.62,7.868,7.868,0,0,1-3.393.55,14.6,14.6,0,0,1-6.839-1.51,2.269,2.269,0,0,1-1.49-1.91,1.262,1.262,0,0,1,.205-0.81,2.713,2.713,0,0,1,.874-0.56,1.921,1.921,0,0,0,1.131-1.51,52.014,52.014,0,0,0,.308-6.41,42.769,42.769,0,0,0-.308-4.89,0.48,0.48,0,0,0-.206-0.25,6.615,6.615,0,0,0-.874-0.21,1.515,1.515,0,0,1-.925-0.5,1.361,1.361,0,0,1-.36-1.01,1.729,1.729,0,0,1,.515-1.26,5.673,5.673,0,0,1,1.643-1.06,19.506,19.506,0,0,1,6.994-1.97h0Zm1.8,6.66-0.256,4.84v0.6a1.166,1.166,0,0,0,.462.92,2.517,2.517,0,0,0,1.286.35c1.644,0,2.466-1.37,2.466-4.04a5.358,5.358,0,0,0-1.026-3.68,1.971,1.971,0,0,0-1.543-.66c-0.873,0-1.336.56-1.388,1.67h0Z" transform="translate(-680 -1582.5)"></path></svg>