<svg xmlns="http://www.w3.org/2000/svg" width="220" height="88" viewBox="0 0 220 88" fill="#013a51" fill-rule="evenodd"><path id="logo-transferwize-home" class="cls-1" d="M1235.22,1640.52h3.29v-16.97h-3.29v16.97Zm-0.12-19.22h3.65v-3.41h-3.65v3.42h0v-0.01Zm-9.53,14.15h-0.12l-4.24-11.9h-2.94l-4.83,11.9h-0.11l-3.3-17.56h-3.53l4.47,22.63h3.3l5.29-12.5h0.12l4.59,12.5h3.3l5.65-22.63h-3.42l-4.23,17.56h0Zm-42.14-12.14c-4.7,0-8.35,3.77-8.35,8.84,0,5.31,3.53,8.73,8.47,8.73a9.222,9.222,0,0,0,7.18-2.95l-2-1.89a6.776,6.776,0,0,1-4.95,2.01c-3.17,0-5.41-2.48-5.41-6.02,0-3.3,1.88-6.13,4.94-6.13,3.53,0,4.48,2.83,4.59,4.6h-5.65l-1.17,2.6h10.12v-1.18C1191.44,1627.08,1188.85,1623.31,1183.43,1623.31Zm-12.59.48v-0.48c0-2.12,1.06-3.3,3.06-3.3a15.4,15.4,0,0,1,2.94.47l1.06-2.35a11.018,11.018,0,0,0-4.12-.83c-3.29,0-6.24,1.65-6.24,6.01v0.48h-2.23v2.7h2.23v14.03h3.3v-14.03h3.3l1.17-2.7h-4.47Zm-29.66-.48a5.754,5.754,0,0,0-5.18,2.48h-0.11v-2.24h-3.18v16.97h3.3v-9.19c0-3.3,1.76-5.31,4.47-5.31,2.59,0,4.12,1.3,4.12,4.48v10.02h3.29v-10.61C1147.77,1625.55,1145.19,1623.31,1141.18,1623.31Zm-20.36,0a13.67,13.67,0,0,0-5.18.83l0.59,2.59a15.247,15.247,0,0,1,4.24-.71c2.82,0,5.06,1.3,5.06,4.01v0.47a11.976,11.976,0,0,0-4.36-.7c-4.47,0-7.41,2.24-7.41,5.78,0,3.77,2.94,5.42,6.12,5.42a6.978,6.978,0,0,0,5.53-2.24h0.12v2h3.18v-10.61C1128.71,1625.31,1125.65,1623.31,1120.82,1623.31Zm4.71,10.73c0,2.47-2.12,4.12-5.18,4.12-1.76,0-3.29-.82-3.29-2.83,0-1.88,1.64-3.06,4-3.06,2.23,0,3.65.35,4.47,0.95v0.82h0Zm-40.72-13.09h7.42v19.57h3.53v-19.57h7.42v-3.06h-18.37v3.06Zm26.24,2.48a5.637,5.637,0,0,0-4.59,2h-0.12v-1.88h-3.17v16.97h3.29v-9.31c0-3.54,1.77-5.07,4.48-5.07a13.381,13.381,0,0,1,2.35.24l0.7-2.6a16.986,16.986,0,0,0-2.94-.35h0Zm86.86,2h-0.12v-1.88h-3.18v16.97h3.3v-9.31c0-3.54,2-5.07,4.59-5.07a13.189,13.189,0,0,1,2.35.24l0.71-2.6a7,7,0,0,0-2.83-.47c-1.88.12-3.88,0.82-4.82,2.12h0Zm64.96,7.78H1273v-1.18c0-4.83-2.59-8.72-8.01-8.72-4.7,0-8.35,3.77-8.35,8.84,0,5.31,3.53,8.73,8.47,8.73a9.222,9.222,0,0,0,7.18-2.95l-2-1.89a6.776,6.776,0,0,1-4.95,2.01c-3.17,0-5.41-2.48-5.41-6.02,0-3.3,1.88-6.13,4.94-6.13,3.53,0,4.48,2.83,4.59,4.6h-5.65l-0.93,2.71h-0.01Zm-104.98-2.47c-2.59-.36-4-0.83-4-2.48,0-1.53,1.53-2.36,3.3-2.36a8.824,8.824,0,0,1,4.59,1.42l1.65-2.24a10.424,10.424,0,0,0-6.12-1.77c-3.89,0-6.71,2.24-6.71,5.19,0,3.42,2.23,4.48,6,5.07,2.12,0.35,4,.59,4,2.35,0,1.54-1.53,2.24-3.53,2.24a8.525,8.525,0,0,1-5.41-1.76l-1.41,2.47a11.392,11.392,0,0,0,6.71,2.01c4,0,6.82-2.24,6.82-5.31C1163.9,1631.92,1160.84,1631.09,1157.89,1630.74Zm91.1,0c-2.59-.36-4-0.83-4-2.48,0-1.53,1.52-2.36,3.29-2.36a8.824,8.824,0,0,1,4.59,1.42l1.65-2.24a10.424,10.424,0,0,0-6.12-1.77c-3.89,0-6.71,2.24-6.71,5.19,0,3.42,2.24,4.48,6,5.07,2.12,0.35,4,.59,4,2.35,0,1.54-1.53,2.24-3.53,2.24a8.525,8.525,0,0,1-5.41-1.76l-1.41,2.47a11.392,11.392,0,0,0,6.71,2.01c4,0,6.82-2.24,6.82-5.31,0.12-3.65-2.82-4.48-5.88-4.83h0Zm-188.68-25.75,4.77,7.91-8.08,7.91h14l1.51-3.14h-8.01l4.76-4.83-2.9-4.66h13.13l-11.39,27.06h3.89l12.78-30.25h-24.46Z" transform="translate(-1055 -1579)"></path></svg>