<svg xmlns="http://www.w3.org/2000/svg" width="220" height="88" viewBox="0 0 220 88" fill="#013a51" fill-rule="evenodd"><path id="logo-hopper-home" class="cls-1" d="M1545.17,1492.6c-2.19,0-4.04-2.26-4.04-4.86s1.85-4.85,4.04-4.85,4.05,2.18,4.05,4.85S1547.35,1492.6,1545.17,1492.6Zm0-13.72c-5.3,0-9.68,4.02-9.68,8.86a8.5,8.5,0,0,0,.68,3.26,4.112,4.112,0,0,1-2.61,1.75c-3.54,0,1.1-13.87-5.48-13.87-4.46,0-7.72,6.02-9.43,9.87,0.34-6.44.67-12.46,0.67-18.56a47.818,47.818,0,0,0-.34-7.66,2.869,2.869,0,0,0-2.11-1,5.67,5.67,0,0,0-2.58,1.14c-0.34.76-.77,7.19-0.77,12.79,0,15.38,1.01,20.4,1.1,20.48,0.17,0.67,1.77.67,1.77,0.67s1.6,0,1.85-.67v-0.08c0.34-1,4.21-11.54,7.25-11.54s-1.6,12.26,6.9,12.26a7.286,7.286,0,0,0,5.47-3.06,10.158,10.158,0,0,0,7.33,3.06c5.4,0,9.76-4.01,9.76-8.86S1550.58,1478.88,1545.17,1478.88Zm20.71,13.72a4.857,4.857,0,0,1-.28-9.71h0.28c2.26,0,4.04,2.18,4.04,4.86s-1.77,4.85-4.05,4.85h0.01Zm0-13.72a9.706,9.706,0,0,0-5.48,1.76c-0.08-.77-0.08-1.17-0.08-1.17-0.26-.77-1.86-0.77-1.86-0.77s-1.54.08-1.68,0.77c-0.08.08-.93,6.93-0.93,19.47,0,1.42.09-.5,0.09,1,0.08,5.69.5,11.96,0.93,12.79a5.681,5.681,0,0,0,2.69,1.15h0.09a2.841,2.841,0,0,0,2.02-1,38.628,38.628,0,0,0,.17-4.69v-2.98c-0.09-3.68-.26-5.19-0.43-9.78a9.881,9.881,0,0,0,4.63,1.17c5.4,0,9.77-4.02,9.77-8.86-0.17-4.85-4.55-8.86-9.94-8.86h0.01Zm20.71,13.72a4.857,4.857,0,0,1-.28-9.71h0.28c2.27,0,4.04,2.18,4.04,4.86S1588.86,1492.6,1586.59,1492.6Zm0-13.72a9.651,9.651,0,0,0-5.47,1.76,11.3,11.3,0,0,1-.09-1.17c-0.25-.77-1.85-0.77-1.85-0.77s-1.55.08-1.68,0.77c-0.09.08-.93,6.93-0.93,19.47,0,1.42.08-.5,0.08,1,0.09,5.69.5,11.96,0.93,12.79a5.681,5.681,0,0,0,2.69,1.15h0.09a2.822,2.822,0,0,0,2.02-1,36.7,36.7,0,0,0,.17-4.69v-2.98c-0.08-3.68-.25-5.19-0.42-9.78a9.821,9.821,0,0,0,4.63,1.17c5.4,0,9.76-4.02,9.76-8.86C1596.35,1482.89,1591.97,1478.88,1586.59,1478.88Zm20.46,4.01c1.34,0,2.61.5,2.61,2.18s-2.61,2.34-4.64,2.34a6,6,0,0,1-1.93-.26c0.17-2.4,1.94-4.26,3.95-4.26h0.01Zm28.21,2.42a0.564,0.564,0,0,0-.5.5c-1.86,3.51-4.3,7.02-6.06,7.02a0.637,0.637,0,0,1-.61-0.66c0.01-.03.01-0.07,0.02-0.1,0-1.53,2.78-6.53,2.78-8.37s-1.27-2.92-3.71-2.92c-1.54,0-4.88-.17-5.81-0.84,0-2.34-.93-4.01-2.86-4.01-1.55,0-2.27,1.92-2.27,3.06a4.706,4.706,0,0,0,2.01,4.23,24.465,24.465,0,0,1-2.61,5.37,8.855,8.855,0,0,1-7.72,4.18c-2.27,0-4.21-1.09-4.72-3.35a12.015,12.015,0,0,0,3.74.7c3.79,0,7.07-1.92,7.07-5.52,0-3.34-3.09-5.51-7.07-5.51-5.3,0-9.68,4.01-9.68,8.86,0,3.51,2.78,8.86,10.61,8.86,5.73,0,9.09-4.93,10.27-7.19,0-.09.09-0.09,0.09-0.17a30.541,30.541,0,0,0,2.19-5.01,17.348,17.348,0,0,0,4.05.76,0.578,0.578,0,0,1,.66.49,0.01,0.01,0,0,1,.01.01,3.148,3.148,0,0,0-.09.42c-0.77,1.59-2.11,4.52-2.11,6.36a4.321,4.321,0,0,0,4.19,4.44h0c0.15,0,.3,0,0.45-0.01,4.54,0,7.24-5.52,8.08-7.19a4.3,4.3,0,0,0,.34-1.84c0.1-1.47-.33-2.55-0.74-2.55v-0.02Zm-142.64-4.51c-0.49-3.01-3.45-10.73-3.96-13.54-0.61-3.01-.92-6.27.43-6.27,2.02,0,6.4,2.34,7.07,11.87a50.531,50.531,0,0,1-.17,8.61c0.09,0.67,18.69,12.54-.42,16.86-1.94.43,6.23,6.02,7.24,11.88,0.77,4.17-1.94,4.34-4.05,3.17-2.35-1.42-4.71-5.18-6.98-7.86-7.66-9.11-28.71-25.74-53.55-4.51-3.03,2.59-5.47-6.13,10.27-18.3,1.94-1.54-2.35.33-4.37-2.43-3.79-5.26,3.2-10.27,7.91-10.44,1.27,0,1.6,1.75,1.6,5.43,0,1.53,12.89-10.2,31.99,8.11a1.485,1.485,0,0,0,2.1-.06,0.481,0.481,0,0,0,.09-0.11c-0.25-.83-2.27-3.76-4.8-7.19-4.37-6.01-4.37-12.54-2.1-13.46,1.1-.42,3.45,2.01,4.38,3.51,1.85,3.07,4.46,12.2,5.81,15.22Z" transform="translate(-1426 -1443.5)"></path></svg>