<svg xmlns="http://www.w3.org/2000/svg" width="220" height="88" viewBox="0 0 220 88" fill="#013a51" fill-rule="evenodd"><path id="logo-samsung-home" class="cls-1" d="M855.156,1475.53l0.388,22.56h-0.158l-6.569-22.56H838.208v28.44h7.03l-0.4-23.33H845l7.056,23.34h10.179v-28.45h-7.075Zm-134.552,0-5.3,28.74h7.726l3.909-26.07h0.16l3.81,26.08h7.678l-5.27-28.75H720.6Zm43.188,0-3.526,21.98H760.1l-3.521-21.98H744.925l-0.63,28.74h7.155l0.178-25.83h0.158l4.774,25.83h7.253l4.777-25.82h0.157l0.179,25.83h7.149l-0.63-28.74H763.792v-0.01Zm-60.52,20.63a3.767,3.767,0,0,1,.056,2.13c-0.233.96-.879,1.93-2.784,1.93a2.563,2.563,0,0,1-2.872-2.61l-0.007-2.78H690v2.21c0,6.41,5.016,8.35,10.388,8.35,5.171,0,9.424-1.77,10.1-6.57a14.051,14.051,0,0,0-.03-4.71c-1.207-6.02-12.051-7.82-12.86-11.18a3.713,3.713,0,0,1-.031-1.51,2.358,2.358,0,0,1,2.611-1.93,2.451,2.451,0,0,1,2.655,2.6v1.78h7.133v-2.02c0-6.26-5.592-7.24-9.638-7.24-5.079,0-9.235,1.69-9.993,6.38a10.017,10.017,0,0,0,.067,3.88c1.238,5.87,11.4,7.57,12.869,11.29m92.929-.06a3.757,3.757,0,0,1,.054,2.11c-0.23.94-.87,1.91-2.757,1.91a2.538,2.538,0,0,1-2.845-2.58v-2.76h-7.59v2.2c0,6.34,4.969,8.26,10.287,8.26,5.12,0,9.33-1.75,10-6.5a14.024,14.024,0,0,0-.031-4.67c-1.2-5.96-11.933-7.74-12.73-11.06a3.714,3.714,0,0,1-.037-1.5,2.346,2.346,0,0,1,2.581-1.91,2.413,2.413,0,0,1,2.625,2.18,2.565,2.565,0,0,1,.007.4v1.77h7.062v-2.01c0-6.2-5.538-7.16-9.544-7.16-5.025,0-9.141,1.67-9.889,6.31a9.832,9.832,0,0,0,.065,3.84c1.224,5.82,11.283,7.49,12.741,11.18m24,3.86a2.572,2.572,0,0,0,2.74-2.08,6.067,6.067,0,0,0,.068-1.1v-21.26h7.234v20.61c0.009,0.53-.045,1.61-0.073,1.89-0.5,5.36-4.716,7.1-9.969,7.1s-9.474-1.74-9.974-7.1c-0.026-.28-0.08-1.36-0.067-1.89v-20.61h7.23v21.26a5.727,5.727,0,0,0,.068,1.1,2.567,2.567,0,0,0,2.743,2.08m59.617-.3a2.679,2.679,0,0,0,2.92-2.09,5.9,5.9,0,0,0,.068-1.09v-4.17h-2.93v-4.19H890v7.7a18.237,18.237,0,0,1-.1,1.9c-0.472,5.23-4.985,7.1-10.051,7.1s-9.577-1.86-10.054-7.1c-0.082-.96-0.1-1.35-0.1-1.9v-12.09c0-.51.061-1.41,0.12-1.89,0.638-5.37,4.963-7.1,10.033-7.1s9.506,1.71,10.033,7.1a18.65,18.65,0,0,1,.065,1.89v0.96h-7.206v-1.61a6.813,6.813,0,0,0-.092-1.09,2.6,2.6,0,0,0-2.857-2.09,2.642,2.642,0,0,0-2.848,2.09,6.74,6.74,0,0,0-.116,1.36v13.13a6.806,6.806,0,0,0,.066,1.09,2.682,2.682,0,0,0,2.924,2.09" transform="translate(-680 -1446)"></path></svg>