<svg width="21" height="27" viewBox="0 0 21 27" fill="none" xmlns="http://www.w3.org/2000/svg">
<path d="M19.1331 0.945312H1.755C1.11511 0.945312 0.59668 1.46428 0.59668 2.10418V25.2745C0.59668 25.9144 1.11565 26.4333 1.755 26.4333H19.1331C19.773 26.4333 20.2915 25.9144 20.2915 25.2745V2.10418C20.2915 1.46428 19.773 0.945312 19.1331 0.945312ZM17.9743 3.26196V6.73748H2.91333V3.26196H17.9743ZM2.91333 24.1167V9.05467H17.9743V24.1151H2.91333V24.1167Z" fill="white"/>
<path d="M7.06138 10.0762H4.65632C4.33636 10.0762 4.07715 10.3359 4.07715 10.6553V13.062C4.07715 13.382 4.33691 13.6412 4.65632 13.6412H7.06138C7.38134 13.6412 7.64055 13.3814 7.64055 13.062V10.6553C7.64109 10.3348 7.38242 10.0762 7.06138 10.0762Z" fill="white"/>
<path d="M11.6507 10.0762H9.24616C8.92621 10.0762 8.66699 10.3359 8.66699 10.6553V13.062C8.66699 13.382 8.92621 13.6412 9.24616 13.6412H11.6507C11.9706 13.6412 12.2298 13.3814 12.2298 13.062V10.6553C12.2304 10.3348 11.9706 10.0762 11.6507 10.0762Z" fill="white"/>
<path d="M16.2376 10.0762H13.8325C13.5126 10.0762 13.2539 10.3359 13.2539 10.6553V13.062C13.2539 13.382 13.5131 13.6412 13.8325 13.6412H16.2376C16.5575 13.6412 16.8167 13.3814 16.8167 13.062V10.6553C16.8167 10.3348 16.5575 10.0762 16.2376 10.0762Z" fill="white"/>
<path d="M7.06138 14.7969H4.65632C4.33636 14.7969 4.07715 15.0561 4.07715 15.3755V17.7822C4.07715 18.1021 4.33691 18.3608 4.65632 18.3608H7.06138C7.38134 18.3608 7.64055 18.1016 7.64055 17.7822V15.3755C7.64109 15.055 7.38242 14.7969 7.06138 14.7969Z" fill="white"/>
<path d="M11.6507 14.7969H9.24616C8.92621 14.7969 8.66699 15.0561 8.66699 15.3755V17.7822C8.66699 18.1021 8.92621 18.3608 9.24616 18.3608H11.6507C11.9706 18.3608 12.2298 18.1016 12.2298 17.7822V15.3755C12.2304 15.055 11.9706 14.7969 11.6507 14.7969Z" fill="white"/>
<path d="M7.06138 19.5273H4.65632C4.33636 19.5273 4.07715 19.7866 4.07715 20.1054V22.5121C4.07715 22.8331 4.33691 23.0913 4.65632 23.0913H7.06138C7.38134 23.0913 7.64055 22.8315 7.64055 22.5121V20.1054C7.64109 19.7855 7.38242 19.5273 7.06138 19.5273Z" fill="white"/>
<path d="M11.6507 19.5273H9.24616C8.92621 19.5273 8.66699 19.7866 8.66699 20.1054V22.5121C8.66699 22.8331 8.92621 23.0913 9.24616 23.0913H11.6507C11.9706 23.0913 12.2298 22.8315 12.2298 22.5121V20.1054C12.2304 19.7855 11.9706 19.5273 11.6507 19.5273Z" fill="white"/>
<path d="M16.2376 14.7969H13.8325C13.5126 14.7969 13.2539 15.0561 13.2539 15.3755V22.5055C13.2539 22.8265 13.5131 23.0847 13.8325 23.0847H16.2376C16.5575 23.0847 16.8167 22.8249 16.8167 22.5055V15.3755C16.8167 15.055 16.5575 14.7969 16.2376 14.7969Z" fill="white"/>
</svg>
