<svg width="27" height="27" viewBox="0 0 27 27" fill="none" xmlns="http://www.w3.org/2000/svg">
<path id="dashboard-icon" fill-rule="evenodd" clip-rule="evenodd" d="M9.63414 0.0527344H2.26864C1.04829 0.0527344 0.0589971 1.04203 0.0589971 2.26238V9.62787C0.0589971 10.8482 1.04829 11.8375 2.26864 11.8375H9.63414C10.8545 11.8375 11.8438 10.8482 11.8438 9.62787V2.26238C11.8438 1.04203 10.8545 0.0527344 9.63414 0.0527344ZM1.53935 2.26539C1.53935 1.8586 1.86911 1.52884 2.2759 1.52884H9.64139C10.0482 1.52884 10.3779 1.8586 10.3779 2.26539V9.63088C10.3779 10.0377 10.0482 10.3674 9.64139 10.3674H2.2759C1.86911 10.3674 1.53935 10.0377 1.53935 9.63088V2.26539ZM16.996 1.52884C16.5892 1.52884 16.2594 1.8586 16.2594 2.26539V9.63088C16.2594 10.0377 16.5892 10.3674 16.996 10.3674H24.3615C24.7683 10.3674 25.098 10.0377 25.098 9.63088V2.26539C25.098 1.8586 24.7683 1.52884 24.3615 1.52884H16.996ZM24.3648 0.0535497H16.9993C15.7789 0.0535497 14.7896 1.04284 14.7896 2.2632V9.62869C14.7896 10.849 15.7789 11.8383 16.9993 11.8383H24.3648C25.5851 11.8383 26.5744 10.849 26.5744 9.62869V2.2632C26.5744 1.04284 25.5851 0.0535497 24.3648 0.0535497ZM2.27043 16.2653C1.86365 16.2653 1.53388 16.5951 1.53388 17.0019V24.3674C1.53388 24.7742 1.86365 25.1039 2.27043 25.1039H9.63592C10.0427 25.1039 10.3725 24.7742 10.3725 24.3674V17.0019C10.3725 16.5951 10.0427 16.2653 9.63592 16.2653H2.27043ZM9.63373 14.79H2.26824C1.04789 14.79 0.0585938 15.7793 0.0585938 16.9997V24.3652C0.0585938 25.5855 1.04789 26.5748 2.26824 26.5748H9.63373C10.8541 26.5748 11.8434 25.5855 11.8434 24.3652V16.9997C11.8434 15.7793 10.8541 14.79 9.63373 14.79ZM16.996 16.2653C16.5892 16.2653 16.2594 16.5951 16.2594 17.0019V24.3674C16.2594 24.7742 16.5892 25.1039 16.996 25.1039H24.3615C24.7683 25.1039 25.098 24.7742 25.098 24.3674V17.0019C25.098 16.5951 24.7683 16.2653 24.3615 16.2653H16.996ZM24.3648 14.79H16.9993C15.7789 14.79 14.7896 15.7793 14.7896 16.9997V24.3652C14.7896 25.5855 15.7789 26.5748 16.9993 26.5748H24.3648C25.5851 26.5748 26.5744 25.5855 26.5744 24.3652V16.9997C26.5744 15.7793 25.5851 14.79 24.3648 14.79Z" fill="white"/>
</svg>
