<svg width="35" height="26" viewBox="0 0 35 26" fill="none" xmlns="http://www.w3.org/2000/svg">
<path d="M33.7715 19.6338C34.3895 19.6338 34.8981 19.1306 34.8981 18.5072V17.4517C34.8981 16.8337 34.395 16.3251 33.7715 16.3251H33.1973C33.0497 15.7782 32.8364 15.2532 32.552 14.7665L32.9622 14.3563C33.3997 13.9188 33.3997 13.2024 32.9622 12.7649L32.2129 12.0157C31.9996 11.8024 31.7153 11.6875 31.4199 11.6875C31.1192 11.6875 30.8348 11.8024 30.627 12.0157L30.2168 12.4258C29.7246 12.1414 29.2051 11.9227 28.6582 11.7805V11.2008C28.6582 10.5828 28.155 10.0742 27.5316 10.0742H26.4706C25.8527 10.0742 25.3441 10.5774 25.3441 11.2008V11.7805C24.7972 11.9282 24.2722 12.1414 23.7854 12.4258L23.3753 12.0157C23.162 11.8024 22.8776 11.6875 22.5823 11.6875C22.2815 11.6875 21.9971 11.8024 21.7893 12.0157L21.0401 12.7649C20.6026 13.2024 20.6026 13.9188 21.0401 14.3563L21.4502 14.7665C21.1659 15.2587 20.9471 15.7782 20.8049 16.3251H20.2252C19.6072 16.3251 19.0986 16.8282 19.0986 17.4517V18.5127C19.0986 19.1306 19.6018 19.6392 20.2252 19.6392H20.8049C20.9526 20.1861 21.1659 20.7111 21.4502 21.1979L21.0401 21.608C20.6026 22.0455 20.6026 22.7619 21.0401 23.1995L21.7893 23.9487C22.0026 24.162 22.287 24.2768 22.5823 24.2768C22.8831 24.2768 23.1675 24.162 23.3753 23.9487L23.7854 23.5385C24.2776 23.8229 24.7972 24.0417 25.3441 24.1838V24.7635C25.3441 25.3815 25.8472 25.8901 26.4706 25.8901H27.5316C28.1496 25.8901 28.6582 25.387 28.6582 24.7635V24.1784C29.2051 24.0307 29.7301 23.8174 30.2168 23.5331L30.627 23.9432C30.8402 24.1565 31.1246 24.2713 31.4199 24.2713C31.7207 24.2713 32.0051 24.1565 32.2129 23.9432L32.9622 23.194C33.3997 22.7565 33.3997 22.0401 32.9622 21.6025L32.552 21.1924C32.8364 20.7002 33.0551 20.1806 33.1973 19.6338H33.7715ZM32.3168 19.0431C32.1801 19.7431 31.9067 20.3994 31.5074 20.9955C31.3762 21.1924 31.4035 21.4549 31.5676 21.619L32.2567 22.308C32.3114 22.3627 32.3114 22.4448 32.2567 22.4994L31.5074 23.2487C31.4746 23.2815 31.4363 23.287 31.4145 23.287C31.3871 23.287 31.3543 23.2815 31.3215 23.2487L30.6324 22.5596C30.4629 22.3901 30.2004 22.3682 30.009 22.4994C29.4129 22.8987 28.7566 23.1666 28.0566 23.3088C27.8269 23.3526 27.6574 23.5604 27.6574 23.7956V24.769C27.6574 24.8401 27.5972 24.9003 27.5261 24.9003H26.4652C26.3941 24.9003 26.3339 24.8401 26.3339 24.769V23.7956C26.3339 23.5604 26.1644 23.358 25.9347 23.3088C25.2347 23.1721 24.5784 22.8987 23.9823 22.4994C23.9003 22.4448 23.8018 22.4174 23.7089 22.4174C23.5831 22.4174 23.4518 22.4666 23.3589 22.5651L22.6698 23.2541C22.637 23.287 22.5987 23.2924 22.5768 23.2924C22.5495 23.2924 22.5167 23.287 22.4838 23.2541L21.7346 22.5049C21.6799 22.4502 21.6799 22.3682 21.7346 22.3135L22.4237 21.6244C22.5932 21.4549 22.6151 21.1924 22.4838 21.001C22.0846 20.4049 21.8166 19.7486 21.6745 19.0486C21.6307 18.8189 21.4229 18.6494 21.1877 18.6494H20.2143C20.1432 18.6494 20.083 18.5892 20.083 18.5181V17.4517C20.083 17.3806 20.1432 17.3204 20.2143 17.3204H21.1877C21.4229 17.3204 21.6252 17.1509 21.6745 16.9212C21.8112 16.2212 22.0846 15.5649 22.4838 14.9688C22.6151 14.772 22.5878 14.5095 22.4237 14.3454L21.7346 13.6563C21.7018 13.6235 21.6963 13.5852 21.6963 13.5633C21.6963 13.536 21.7018 13.5032 21.7346 13.4704L22.4784 12.7157C22.5112 12.6829 22.5495 12.6774 22.5713 12.6774C22.5987 12.6774 22.6315 12.6829 22.6643 12.7157L23.3534 13.4047C23.5229 13.5743 23.7854 13.5962 23.9768 13.4649C24.5729 13.0657 25.2292 12.7977 25.9292 12.6555C26.1589 12.6118 26.3284 12.4039 26.3284 12.1688V11.2008C26.3284 11.1297 26.3886 11.0695 26.4597 11.0695H27.5207C27.5917 11.0695 27.6519 11.1297 27.6519 11.2008V12.1743C27.6519 12.4094 27.8214 12.6118 28.0511 12.661C28.7511 12.7977 29.4074 13.0711 30.0035 13.4704C30.2004 13.6016 30.4629 13.5743 30.627 13.4102L31.316 12.7211C31.3488 12.6883 31.3871 12.6829 31.409 12.6829C31.4363 12.6829 31.4692 12.6883 31.502 12.7211L32.2512 13.4704C32.3059 13.5251 32.3059 13.6071 32.2512 13.6618L31.5621 14.3509C31.3926 14.5204 31.3707 14.7829 31.502 14.9743C31.9012 15.5704 32.1692 16.2267 32.3114 16.9267C32.3551 17.1564 32.5629 17.3259 32.7981 17.3259H33.7715C33.8426 17.3259 33.9028 17.3861 33.9028 17.4572V18.5181C33.9028 18.5892 33.8426 18.6494 33.7715 18.6494H32.7981C32.5629 18.6439 32.3606 18.808 32.3168 19.0431Z" fill="white"/>
<path d="M26.9938 14.7969C25.2383 14.7969 23.8164 16.2242 23.8164 17.9743C23.8164 19.7298 25.2438 21.1517 26.9938 21.1517C28.7493 21.1517 30.1712 19.7243 30.1712 17.9743C30.1712 16.2242 28.7439 14.7969 26.9938 14.7969ZM26.9938 20.1618C25.7852 20.1618 24.8063 19.1829 24.8063 17.9743C24.8063 16.7657 25.7852 15.7867 26.9938 15.7867C28.2024 15.7867 29.1814 16.7657 29.1814 17.9743C29.1814 19.1829 28.197 20.1618 26.9938 20.1618Z" fill="white"/>
<path fill-rule="evenodd" clip-rule="evenodd" d="M25.3647 0.398438H0.980642C0.554559 0.398438 0.208984 0.744012 0.208984 1.1701V14.5508C0.208984 14.9769 0.554559 15.3222 0.980642 15.3222H2.23872V23.3844C2.23872 23.8105 2.58409 24.156 3.01037 24.156H5.44779C5.87388 24.156 6.21945 23.8105 6.21945 23.3844V15.3222H20.4349V23.3844C20.4349 23.8105 20.7805 24.156 21.2065 24.156H23.6442C24.0702 24.156 24.4158 23.8105 24.4158 23.3844V15.3222H25.3647C25.7908 15.3222 26.1364 14.9769 26.1364 14.5508V1.1701C26.1364 0.744012 25.7908 0.398438 25.3647 0.398438ZM4.67613 22.6127H3.78203V15.382H4.67613V22.6127ZM22.8725 22.6127H21.9782V15.382H22.8725V22.6127ZM24.5931 1.94175V9.82172H23.6186L21.3355 7.5386C21.0343 7.23713 20.5457 7.23713 20.2442 7.5386L18.4576 9.32522L16.7398 7.60724C16.4385 7.30597 15.9499 7.30597 15.6485 7.60724L13.431 9.82469H1.7523V1.94175H24.5931ZM1.7523 13.7791V11.368H13.7505C13.9552 11.368 14.1514 11.2867 14.2962 11.1421L16.194 9.24412L17.912 10.9619C18.2133 11.2634 18.7019 11.2634 19.0033 10.9619L20.7898 9.17548L22.7534 11.1389C22.8982 11.2837 23.0944 11.365 23.299 11.365H24.5931V13.7791H1.7523ZM6.38541 8.47048H10.6136C11.8932 8.47048 12.9343 7.42941 12.9343 6.14957C12.9343 4.93106 11.9902 3.92895 10.7952 3.83598C10.2552 3.12466 9.41349 2.69897 8.49961 2.69897C7.58553 2.69897 6.74385 3.12466 6.20382 3.83598C5.00885 3.92895 4.0647 4.93126 4.0647 6.14977C4.0647 7.42941 5.10578 8.47048 6.38541 8.47048ZM6.38541 5.37218C6.42517 5.37218 6.46493 5.37515 6.5037 5.38108C6.83108 5.43073 7.15391 5.26595 7.30543 4.97161C7.53726 4.52179 7.9948 4.24229 8.49961 4.24229C9.00442 4.24229 9.46176 4.52179 9.69359 4.97161C9.84531 5.26595 10.1675 5.43093 10.4953 5.38108C10.5343 5.37515 10.574 5.37218 10.6136 5.37218C11.0423 5.37218 11.391 5.72092 11.391 6.14957C11.391 6.57823 11.0423 6.92717 10.6136 6.92717H6.38561C5.95676 6.92717 5.60802 6.57823 5.60802 6.14957C5.60802 5.72092 5.95676 5.37218 6.38541 5.37218ZM20.6058 4.90198C20.6058 6.08786 19.6409 7.05258 18.455 7.05258C17.2691 7.05258 16.3042 6.08786 16.3042 4.90198C16.3042 3.71591 17.2691 2.75119 18.455 2.75119C19.6409 2.75119 20.6058 3.71591 20.6058 4.90198ZM19.0625 4.90198C19.0625 4.56709 18.7899 4.29451 18.455 4.29451C18.1201 4.29451 17.8475 4.56709 17.8475 4.90198C17.8475 5.23688 18.1201 5.50926 18.455 5.50926C18.7899 5.50926 19.0625 5.23688 19.0625 4.90198Z" fill="white"/>
</svg>
