<svg width="26" height="27" viewBox="0 0 26 27" fill="none" xmlns="http://www.w3.org/2000/svg">
<path d="M12.8416 0.945312C5.83244 0.945312 0.0976562 6.68012 0.0976562 13.6893C0.0976562 20.6985 5.83244 26.4333 12.8416 26.4333C19.8508 26.4333 25.5856 20.6985 25.5856 13.6893C25.5856 6.68012 19.8508 0.945312 12.8416 0.945312ZM12.8416 4.76852C15.0081 4.76852 16.6648 6.42524 16.6648 8.59172C16.6648 10.7582 15.0081 12.4149 12.8416 12.4149C10.6751 12.4149 9.01843 10.7582 9.01843 8.59172C9.01843 6.42524 10.6751 4.76852 12.8416 4.76852ZM12.8416 22.865C9.65563 22.865 6.85196 21.2083 5.19524 18.7869C5.19524 16.2381 10.2928 14.8363 12.8416 14.8363C15.3904 14.8363 20.488 16.2381 20.488 18.7869C18.8313 21.2083 16.0276 22.865 12.8416 22.865Z" fill="white"/>
</svg>
