<?xml version="1.0" encoding="UTF-8"?>
<!DOCTYPE svg PUBLIC "-//W3C//DTD SVG 1.1//EN" "http://www.w3.org/Graphics/SVG/1.1/DTD/svg11.dtd">
<!-- Creator: CorelDRAW -->
<svg xmlns="http://www.w3.org/2000/svg" xml:space="preserve" width="144.586mm" height="145.978mm" version="1.1" style="shape-rendering:geometricPrecision; text-rendering:geometricPrecision; image-rendering:optimizeQuality; fill-rule:evenodd; clip-rule:evenodd"
viewBox="0 0 14322.3 14460.23"
 xmlns:xlink="http://www.w3.org/1999/xlink">
 <defs>
  <style type="text/css">
   <![CDATA[
    .fil6 {fill:gray;fill-rule:nonzero}
    .fil9 {fill:white;fill-rule:nonzero}
    .fil14 {fill:url(#id0)}
    .fil20 {fill:url(#id1)}
    .fil17 {fill:url(#id2)}
    .fil70 {fill:url(#id3)}
    .fil27 {fill:url(#id4)}
    .fil71 {fill:url(#id5)}
    .fil32 {fill:url(#id6)}
    .fil28 {fill:url(#id7)}
    .fil29 {fill:url(#id8)}
    .fil2 {fill:url(#id9)}
    .fil1 {fill:url(#id10)}
    .fil75 {fill:url(#id11)}
    .fil41 {fill:url(#id12)}
    .fil55 {fill:url(#id13)}
    .fil42 {fill:url(#id14)}
    .fil10 {fill:url(#id15)}
    .fil12 {fill:url(#id16)}
    .fil52 {fill:url(#id17)}
    .fil65 {fill:url(#id18)}
    .fil83 {fill:url(#id19)}
    .fil69 {fill:url(#id20)}
    .fil74 {fill:url(#id21)}
    .fil22 {fill:url(#id22)}
    .fil16 {fill:url(#id23)}
    .fil19 {fill:url(#id24)}
    .fil51 {fill:url(#id25)}
    .fil50 {fill:url(#id26)}
    .fil72 {fill:url(#id27)}
    .fil7 {fill:url(#id28)}
    .fil43 {fill:url(#id29)}
    .fil4 {fill:url(#id30)}
    .fil3 {fill:url(#id31)}
    .fil38 {fill:url(#id32)}
    .fil40 {fill:url(#id33)}
    .fil39 {fill:url(#id34)}
    .fil82 {fill:url(#id35)}
    .fil78 {fill:url(#id36)}
    .fil23 {fill:url(#id37)}
    .fil24 {fill:url(#id38)}
    .fil85 {fill:url(#id39)}
    .fil73 {fill:url(#id40)}
    .fil58 {fill:url(#id41)}
    .fil11 {fill:url(#id42)}
    .fil46 {fill:url(#id43)}
    .fil47 {fill:url(#id44)}
    .fil26 {fill:url(#id45)}
    .fil25 {fill:url(#id46)}
    .fil34 {fill:url(#id47)}
    .fil67 {fill:url(#id48)}
    .fil13 {fill:url(#id49)}
    .fil49 {fill:url(#id50)}
    .fil48 {fill:url(#id51)}
    .fil81 {fill:url(#id52)}
    .fil79 {fill:url(#id53)}
    .fil5 {fill:url(#id54)}
    .fil30 {fill:url(#id55)}
    .fil35 {fill:url(#id56)}
    .fil31 {fill:url(#id57)}
    .fil84 {fill:url(#id58)}
    .fil64 {fill:url(#id59)}
    .fil80 {fill:url(#id60)}
    .fil18 {fill:url(#id61)}
    .fil15 {fill:url(#id62)}
    .fil21 {fill:url(#id63)}
    .fil33 {fill:url(#id64)}
    .fil45 {fill:url(#id65)}
    .fil44 {fill:url(#id66)}
    .fil8 {fill:url(#id67)}
    .fil76 {fill:url(#id68)}
    .fil37 {fill:url(#id69)}
    .fil36 {fill:url(#id70)}
    .fil68 {fill:url(#id71)}
    .fil77 {fill:url(#id72)}
    .fil0 {fill:url(#id73)}
    .fil61 {fill:url(#id74)}
    .fil66 {fill:url(#id75)}
    .fil59 {fill:url(#id76)}
    .fil60 {fill:url(#id77)}
    .fil53 {fill:url(#id78)}
    .fil63 {fill:url(#id79)}
    .fil56 {fill:url(#id80)}
    .fil57 {fill:url(#id81)}
    .fil62 {fill:url(#id82)}
    .fil54 {fill:url(#id83)}
   ]]>
  </style>
  <linearGradient id="id0" gradientUnits="userSpaceOnUse" x1="12310.91" y1="11165.73" x2="13862.39" y2="11165.73">
   <stop offset="0" style="stop-opacity:1; stop-color:#504F51"/>
   <stop offset="1" style="stop-opacity:1; stop-color:#727176"/>
  </linearGradient>
  <linearGradient id="id1" gradientUnits="userSpaceOnUse" xlink:href="#id0" x1="12310.91" y1="9558.85" x2="13862.39" y2="9558.85">
  </linearGradient>
  <linearGradient id="id2" gradientUnits="userSpaceOnUse" xlink:href="#id0" x1="12310.91" y1="10362.35" x2="13862.39" y2="10362.35">
  </linearGradient>
  <linearGradient id="id3" gradientUnits="userSpaceOnUse" xlink:href="#id0" x1="528.96" y1="13319.84" x2="1910.45" y2="13319.84">
  </linearGradient>
  <linearGradient id="id4" gradientUnits="userSpaceOnUse" xlink:href="#id0" x1="12812.41" y1="13761.02" x2="12842.12" y2="13761.02">
  </linearGradient>
  <linearGradient id="id5" gradientUnits="userSpaceOnUse" x1="528.58" y1="13411.32" x2="1753.27" y2="13411.32">
   <stop offset="0" style="stop-opacity:1; stop-color:#87868A"/>
   <stop offset="0.4" style="stop-opacity:1; stop-color:#CDCED3"/>
   <stop offset="1" style="stop-opacity:1; stop-color:#504F51"/>
  </linearGradient>
  <linearGradient id="id6" gradientUnits="userSpaceOnUse" xlink:href="#id0" x1="8448.34" y1="8770.31" x2="9886.6" y2="8770.31">
  </linearGradient>
  <linearGradient id="id7" gradientUnits="userSpaceOnUse" xlink:href="#id5" x1="8346.58" y1="10375.38" x2="8590.14" y2="10375.38">
  </linearGradient>
  <linearGradient id="id8" gradientUnits="userSpaceOnUse" x1="8346.58" y1="10304.23" x2="8590.14" y2="10304.23">
   <stop offset="0" style="stop-opacity:1; stop-color:#D8D9DD"/>
   <stop offset="1" style="stop-opacity:1; stop-color:#918F94"/>
  </linearGradient>
  <linearGradient id="id9" gradientUnits="userSpaceOnUse" xlink:href="#id8" x1="11093.56" y1="7321.1" x2="11849.69" y2="7321.1">
  </linearGradient>
  <linearGradient id="id10" gradientUnits="userSpaceOnUse" xlink:href="#id5" x1="11093.56" y1="7483.52" x2="11849.69" y2="7483.52">
  </linearGradient>
  <linearGradient id="id11" gradientUnits="userSpaceOnUse" xlink:href="#id0" x1="2171.8" y1="10715.15" x2="2171.8" y2="13728.08">
  </linearGradient>
  <linearGradient id="id12" gradientUnits="userSpaceOnUse" xlink:href="#id8" x1="197.72" y1="7842.23" x2="1722.1" y2="7842.23">
  </linearGradient>
  <linearGradient id="id13" gradientUnits="userSpaceOnUse" xlink:href="#id8" x1="4276.45" y1="5136.96" x2="5137.38" y2="5136.96">
  </linearGradient>
  <linearGradient id="id14" gradientUnits="userSpaceOnUse" xlink:href="#id0" x1="197.33" y1="7900.94" x2="1620.46" y2="7900.94">
  </linearGradient>
  <linearGradient id="id15" gradientUnits="userSpaceOnUse" xlink:href="#id0" x1="8897.48" y1="4787.6" x2="14322.27" y2="4787.6">
  </linearGradient>
  <linearGradient id="id16" gradientUnits="userSpaceOnUse" xlink:href="#id0" x1="9183.23" y1="3146.82" x2="13882.66" y2="3146.82">
  </linearGradient>
  <linearGradient id="id17" gradientUnits="userSpaceOnUse" xlink:href="#id8" x1="5399.82" y1="5786.42" x2="6260.74" y2="5786.42">
  </linearGradient>
  <linearGradient id="id18" gradientUnits="userSpaceOnUse" xlink:href="#id0" x1="1453.26" y1="3253.89" x2="6875.23" y2="3253.89">
  </linearGradient>
  <linearGradient id="id19" gradientUnits="userSpaceOnUse" xlink:href="#id0" x1="3177.26" y1="9011.85" x2="4928.86" y2="9011.85">
  </linearGradient>
  <linearGradient id="id20" gradientUnits="userSpaceOnUse" xlink:href="#id0" x1="1978.21" y1="14311.12" x2="2329.54" y2="14311.12">
  </linearGradient>
  <linearGradient id="id21" gradientUnits="userSpaceOnUse" xlink:href="#id0" x1="511.84" y1="11716.2" x2="2114.61" y2="11716.2">
  </linearGradient>
  <linearGradient id="id22" gradientUnits="userSpaceOnUse" x1="13379.22" y1="10153.61" x2="13862.36" y2="10153.61">
   <stop offset="0" style="stop-opacity:1; stop-color:#BCBDC2"/>
   <stop offset="1" style="stop-opacity:1; stop-color:#9A999E"/>
  </linearGradient>
  <linearGradient id="id23" gradientUnits="userSpaceOnUse" xlink:href="#id22" x1="13379.22" y1="11760.4" x2="13862.36" y2="11760.4">
  </linearGradient>
  <linearGradient id="id24" gradientUnits="userSpaceOnUse" xlink:href="#id22" x1="13379.22" y1="10957.01" x2="13862.36" y2="10957.01">
  </linearGradient>
  <linearGradient id="id25" gradientUnits="userSpaceOnUse" xlink:href="#id8" x1="1936.66" y1="3383.82" x2="2168.21" y2="3383.82">
  </linearGradient>
  <linearGradient id="id26" gradientUnits="userSpaceOnUse" xlink:href="#id5" x1="1936.66" y1="4241.02" x2="2168.21" y2="4241.02">
  </linearGradient>
  <linearGradient id="id27" gradientUnits="userSpaceOnUse" xlink:href="#id0" x1="1753.27" y1="13719.99" x2="1910.45" y2="13719.99">
  </linearGradient>
  <linearGradient id="id28" gradientUnits="userSpaceOnUse" xlink:href="#id0" x1="10769.16" y1="5399.17" x2="11091.07" y2="5399.17">
  </linearGradient>
  <linearGradient id="id29" gradientUnits="userSpaceOnUse" x1="1671.29" y1="7783.6" x2="1671.29" y2="8729.98">
   <stop offset="0" style="stop-opacity:1; stop-color:#87868A"/>
   <stop offset="1" style="stop-opacity:1; stop-color:#A8A7AC"/>
  </linearGradient>
  <linearGradient id="id30" gradientUnits="userSpaceOnUse" xlink:href="#id8" x1="11324.45" y1="4652.05" x2="11618.72" y2="4652.05">
  </linearGradient>
  <linearGradient id="id31" gradientUnits="userSpaceOnUse" xlink:href="#id5" x1="11324.45" y1="6030.81" x2="11618.72" y2="6030.81">
  </linearGradient>
  <linearGradient id="id32" gradientUnits="userSpaceOnUse" xlink:href="#id5" x1="9760.57" y1="9573.15" x2="9938.94" y2="9573.15">
  </linearGradient>
  <linearGradient id="id33" gradientUnits="userSpaceOnUse" xlink:href="#id0" x1="9760.57" y1="7973.84" x2="9938.94" y2="7973.84">
  </linearGradient>
  <linearGradient id="id34" gradientUnits="userSpaceOnUse" xlink:href="#id8" x1="9760.57" y1="7973.84" x2="9938.94" y2="7973.84">
  </linearGradient>
  <linearGradient id="id35" gradientUnits="userSpaceOnUse" xlink:href="#id0" x1="3319.11" y1="8970.13" x2="4995.66" y2="8970.13">
  </linearGradient>
  <linearGradient id="id36" gradientUnits="userSpaceOnUse" xlink:href="#id0" x1="2016.73" y1="10706.98" x2="2016.73" y2="13719.94">
  </linearGradient>
  <linearGradient id="id37" gradientUnits="userSpaceOnUse" xlink:href="#id5" x1="12495.63" y1="13844.99" x2="13159.06" y2="13844.99">
  </linearGradient>
  <linearGradient id="id38" gradientUnits="userSpaceOnUse" xlink:href="#id8" x1="12495.63" y1="13702.48" x2="13159.06" y2="13702.48">
  </linearGradient>
  <linearGradient id="id39" gradientUnits="userSpaceOnUse" xlink:href="#id29" x1="4604.89" y1="9379.91" x2="5332.32" y2="9379.91">
  </linearGradient>
  <linearGradient id="id40" gradientUnits="userSpaceOnUse" x1="512.32" y1="11650.04" x2="2229.05" y2="11650.04">
   <stop offset="0" style="stop-opacity:1; stop-color:#87868A"/>
   <stop offset="1" style="stop-opacity:1; stop-color:#67666A"/>
  </linearGradient>
  <linearGradient id="id41" gradientUnits="userSpaceOnUse" xlink:href="#id8" x1="3153.09" y1="4487.53" x2="4014" y2="4487.53">
  </linearGradient>
  <linearGradient id="id42" gradientUnits="userSpaceOnUse" xlink:href="#id40" x1="9183.69" y1="3070.19" x2="14015.43" y2="3070.19">
  </linearGradient>
  <linearGradient id="id43" gradientUnits="userSpaceOnUse" xlink:href="#id5" x1="6140.26" y1="6677.94" x2="6371.78" y2="6677.94">
  </linearGradient>
  <linearGradient id="id44" gradientUnits="userSpaceOnUse" xlink:href="#id8" x1="6140.26" y1="5820.72" x2="6371.78" y2="5820.72">
  </linearGradient>
  <linearGradient id="id45" gradientUnits="userSpaceOnUse" xlink:href="#id8" x1="12698.13" y1="9100.86" x2="12956.35" y2="9100.86">
  </linearGradient>
  <linearGradient id="id46" gradientUnits="userSpaceOnUse" xlink:href="#id5" x1="12698.13" y1="11440.48" x2="12956.35" y2="11440.48">
  </linearGradient>
  <linearGradient id="id47" gradientUnits="userSpaceOnUse" xlink:href="#id0" x1="9790.66" y1="9186.75" x2="9886.6" y2="9186.75">
  </linearGradient>
  <linearGradient id="id48" gradientUnits="userSpaceOnUse" x1="-0" y1="13732.29" x2="2329.56" y2="13732.29">
   <stop offset="0" style="stop-opacity:1; stop-color:#727176"/>
   <stop offset="1" style="stop-opacity:1; stop-color:#504F51"/>
  </linearGradient>
  <linearGradient id="id49" gradientUnits="userSpaceOnUse" xlink:href="#id0" x1="13949.06" y1="2792.76" x2="13949.06" y2="6289.62">
  </linearGradient>
  <linearGradient id="id50" gradientUnits="userSpaceOnUse" xlink:href="#id8" x1="1894.35" y1="5025.3" x2="2210.5" y2="5025.3">
  </linearGradient>
  <linearGradient id="id51" gradientUnits="userSpaceOnUse" xlink:href="#id5" x1="1894.35" y1="5117.55" x2="2210.5" y2="5117.55">
  </linearGradient>
  <linearGradient id="id52" gradientUnits="userSpaceOnUse" xlink:href="#id0" x1="4995.63" y1="9006.82" x2="5529.13" y2="9006.82">
  </linearGradient>
  <linearGradient id="id53" gradientUnits="userSpaceOnUse" xlink:href="#id0" x1="3790.89" y1="8635.42" x2="5529.15" y2="8635.42">
  </linearGradient>
  <linearGradient id="id54" gradientUnits="userSpaceOnUse" xlink:href="#id0" x1="11454.65" y1="7387.8" x2="11488.53" y2="7387.8">
  </linearGradient>
  <linearGradient id="id55" gradientUnits="userSpaceOnUse" xlink:href="#id5" x1="8379.23" y1="8761.18" x2="8557.53" y2="8761.18">
  </linearGradient>
  <linearGradient id="id56" gradientUnits="userSpaceOnUse" xlink:href="#id0" x1="8379.23" y1="7161.92" x2="8557.53" y2="7161.92">
  </linearGradient>
  <linearGradient id="id57" gradientUnits="userSpaceOnUse" xlink:href="#id8" x1="8379.23" y1="7161.92" x2="8557.53" y2="7161.92">
  </linearGradient>
  <linearGradient id="id58" gradientUnits="userSpaceOnUse" xlink:href="#id0" x1="4382.77" y1="9340.37" x2="4995.63" y2="9340.37">
  </linearGradient>
  <linearGradient id="id59" gradientUnits="userSpaceOnUse" xlink:href="#id40" x1="1453.76" y1="3149.16" x2="7055.48" y2="3149.16">
  </linearGradient>
  <linearGradient id="id60" gradientUnits="userSpaceOnUse" xlink:href="#id5" x1="3790.1" y1="8679.49" x2="5457.4" y2="8679.49">
  </linearGradient>
  <linearGradient id="id61" gradientUnits="userSpaceOnUse" xlink:href="#id0" x1="11826.64" y1="10049.97" x2="12309.81" y2="10049.97">
  </linearGradient>
  <linearGradient id="id62" gradientUnits="userSpaceOnUse" xlink:href="#id0" x1="11826.64" y1="10853.39" x2="12309.81" y2="10853.39">
  </linearGradient>
  <linearGradient id="id63" gradientUnits="userSpaceOnUse" xlink:href="#id0" x1="11826.64" y1="9246.57" x2="12309.81" y2="9246.57">
  </linearGradient>
  <linearGradient id="id64" gradientUnits="userSpaceOnUse" xlink:href="#id0" x1="8448" y1="8825.73" x2="9790.68" y2="8825.73">
  </linearGradient>
  <linearGradient id="id65" gradientUnits="userSpaceOnUse" xlink:href="#id8" x1="6097.95" y1="7462.24" x2="6414.13" y2="7462.24">
  </linearGradient>
  <linearGradient id="id66" gradientUnits="userSpaceOnUse" xlink:href="#id5" x1="6097.95" y1="7554.43" x2="6414.13" y2="7554.43">
  </linearGradient>
  <linearGradient id="id67" gradientUnits="userSpaceOnUse" xlink:href="#id0" x1="11803.58" y1="6003.52" x2="12125.51" y2="6003.52">
  </linearGradient>
  <linearGradient id="id68" gradientUnits="userSpaceOnUse" xlink:href="#id40" x1="357.18" y1="11737.68" x2="2073.97" y2="11737.68">
  </linearGradient>
  <linearGradient id="id69" gradientUnits="userSpaceOnUse" xlink:href="#id8" x1="9728" y1="11116.29" x2="9971.52" y2="11116.29">
  </linearGradient>
  <linearGradient id="id70" gradientUnits="userSpaceOnUse" xlink:href="#id5" x1="9728" y1="11187.3" x2="9971.52" y2="11187.3">
  </linearGradient>
  <linearGradient id="id71" gradientUnits="userSpaceOnUse" xlink:href="#id5" x1="-0" y1="13834.4" x2="1978.23" y2="13834.4">
  </linearGradient>
  <linearGradient id="id72" gradientUnits="userSpaceOnUse" xlink:href="#id0" x1="356.76" y1="11803.77" x2="1959.46" y2="11803.77">
  </linearGradient>
  <linearGradient id="id73" gradientUnits="userSpaceOnUse" xlink:href="#id0" x1="11091.79" y1="5607.27" x2="12125.48" y2="5607.27">
  </linearGradient>
  <linearGradient id="id74" gradientUnits="userSpaceOnUse" xlink:href="#id8" x1="2029.75" y1="3838.08" x2="2890.67" y2="3838.08">
  </linearGradient>
  <linearGradient id="id75" gradientUnits="userSpaceOnUse" xlink:href="#id0" x1="6965.39" y1="3130.39" x2="6965.39" y2="6426.58">
  </linearGradient>
  <linearGradient id="id76" gradientUnits="userSpaceOnUse" xlink:href="#id0" x1="3011.45" y1="4777.69" x2="3331.17" y2="4777.69">
  </linearGradient>
  <linearGradient id="id77" gradientUnits="userSpaceOnUse" xlink:href="#id5" x1="3025.58" y1="4737.79" x2="3327.06" y2="4737.79">
  </linearGradient>
  <linearGradient id="id78" gradientUnits="userSpaceOnUse" xlink:href="#id0" x1="5258.17" y1="6076.59" x2="5577.89" y2="6076.59">
  </linearGradient>
  <linearGradient id="id79" gradientUnits="userSpaceOnUse" xlink:href="#id5" x1="1902.3" y1="4088.35" x2="2203.71" y2="4088.35">
  </linearGradient>
  <linearGradient id="id80" gradientUnits="userSpaceOnUse" xlink:href="#id0" x1="4134.81" y1="5427.13" x2="4454.52" y2="5427.13">
  </linearGradient>
  <linearGradient id="id81" gradientUnits="userSpaceOnUse" xlink:href="#id5" x1="4148.94" y1="5387.27" x2="4450.37" y2="5387.27">
  </linearGradient>
  <linearGradient id="id82" gradientUnits="userSpaceOnUse" xlink:href="#id0" x1="1888.09" y1="4128.22" x2="2207.82" y2="4128.22">
  </linearGradient>
  <linearGradient id="id83" gradientUnits="userSpaceOnUse" xlink:href="#id5" x1="5272.27" y1="6036.67" x2="5573.75" y2="6036.67">
  </linearGradient>
 </defs>
 <g id="Layer_x0020_1">
  <metadata id="CorelCorpID_0Corel-Layer"/>
  <polygon class="fil0" points="12125.5,5673.75 12125.5,6145.72 11091.79,5540.82 11091.79,5068.88 "/>
  <path class="fil1" d="M11093.57 7400l0 -78.87 756.11 0 0 78.87c0,135.77 -169.2,245.91 -378,245.91 -208.83,0 -378.1,-110.14 -378.1,-245.91z"/>
  <path class="fil2" d="M11849.67 7321.13c0,-135.86 -169.2,-246.04 -378,-246.04 -208.83,0 -378.1,110.18 -378.1,246.04 0,135.84 169.27,245.98 378.1,245.98 208.8,0 378,-110.14 378,-245.98l0 0z"/>
  <path class="fil3" d="M11618.72 4652.08l0 2661.67c0,52.94 -65.9,95.78 -147.12,95.78 -81.32,0 -147.15,-42.84 -147.15,-95.78l0 -2661.67 294.27 0z"/>
  <path class="fil4" d="M11618.72 4652.08c0,-52.91 -65.9,-95.78 -147.12,-95.78 -81.32,0 -147.15,42.87 -147.15,95.78 0,52.88 65.83,95.76 147.15,95.76 81.22,0 147.12,-42.88 147.12,-95.76z"/>
  <polygon class="fil5" points="11488.55,7523.28 11454.65,7523.28 11454.65,7252.33 11488.55,7252.33 "/>
  <polygon class="fil6" points="11159.61,7320.28 11325.64,7320.28 11325.64,7115.34 "/>
  <polygon class="fil6" points="11783.95,7320.28 11617.96,7320.28 11617.96,7115.34 "/>
  <polygon class="fil7" points="10769.17,5728.96 10769.17,5257.03 11091.08,5069.4 11091.08,5541.37 "/>
  <polygon class="fil8" points="11803.58,6333.34 11803.58,5861.37 12125.5,5673.75 12125.5,6145.72 "/>
  <polygon class="fil9" points="10769.9,5256.43 11803.58,5861.37 11803.58,6333.34 10769.9,5728.4 "/>
  <polygon class="fil10" points="9309.55,3210.21 14322.3,6106.37 13910.26,6365 8897.47,3468.91 "/>
  <polygon class="fil11" points="14015.45,2734.78 14015.45,6112.94 9375.27,3370.54 9375.27,3370.54 9183.67,106.31 9315.97,27.4 "/>
  <polygon class="fil9" points="9183.22,3482.19 13882.65,6189.57 13882.65,2811.45 9183.22,104.07 "/>
  <path class="fil12" d="M13882.65 2811.45l0 3378.13 -4699.43 -2707.39 0 -3378.12 4699.43 2707.38zm-4569.55 -2482.58l0 3078.22 4439.62 2557.71 0 -3078.22 -4439.62 -2557.71 0 0z"/>
  <polygon class="fil13" points="13882.65,6189.57 13882.65,2811.45 14015.45,2734.78 14015.45,6112.94 "/>
  <polygon class="fil14" points="13862.38,11265.46 13862.38,11973.87 12310.92,11065.93 12310.92,10357.59 "/>
  <polygon class="fil15" points="11826.64,11348.33 11826.64,10639.99 12309.81,10358.42 12309.81,11066.8 "/>
  <polygon class="fil16" points="13862.38,11265.46 13862.38,11973.87 13379.23,12255.36 13379.23,12255.36 13379.23,11547.02 "/>
  <polygon class="fil17" points="13862.38,10462.08 13862.38,11170.49 12310.92,10262.54 12310.92,9554.17 "/>
  <polygon class="fil18" points="11826.64,10544.9 11826.64,9836.56 12309.81,9555.04 12309.81,10263.41 "/>
  <polygon class="fil19" points="13862.38,10462.08 13862.38,11170.49 13379.23,11451.97 13379.23,10743.67 "/>
  <polygon class="fil20" points="13862.38,9658.65 13862.38,10367.02 12310.92,9459.15 12310.92,8750.7 "/>
  <polygon class="fil21" points="11826.64,9741.54 11826.64,9033.17 12309.81,8751.61 12309.81,9459.98 "/>
  <polygon class="fil22" points="13862.38,9658.65 13862.38,10367.02 13379.23,10648.58 13379.23,9940.2 "/>
  <path class="fil23" d="M12495.61 13702.48l663.44 0 0 69.15c0,119.2 -148.49,215.86 -331.74,215.86 -183.22,0 -331.69,-96.66 -331.69,-215.86l0 0 0 -69.15z"/>
  <path class="fil24" d="M13159.05 13702.48c0,-119.28 -148.49,-215.9 -331.74,-215.9 -183.22,0 -331.69,96.62 -331.69,215.9 0,119.2 148.48,215.86 331.69,215.86 183.26,0 331.74,-96.66 331.74,-215.86z"/>
  <path class="fil25" d="M12698.15 13696.02l0 -4595.16 258.2 0 0 0 0 4595.16c0,46.41 -57.76,84.08 -129.08,84.08 -71.36,0 -129.12,-37.67 -129.12,-84.08z"/>
  <path class="fil26" d="M12956.35 9100.85c0,-46.41 -57.76,-84.01 -129.08,-84.01 -71.36,0 -129.12,37.6 -129.12,84.01 0,46.41 57.76,84.01 129.12,84.01 71.32,0 129.08,-37.6 129.08,-84.01l0 0z"/>
  <polygon class="fil27" points="12842.12,13879.9 12812.42,13879.9 12812.42,13642.13 12842.12,13642.13 "/>
  <polygon class="fil6" points="12553.55,13701.74 12699.2,13701.74 12699.2,13521.88 "/>
  <polygon class="fil6" points="13101.31,13701.74 12955.69,13701.74 12955.69,13521.88 "/>
  <polygon class="fil9" points="11827.73,10639.11 13379.23,11547.02 13379.23,12255.36 11827.73,11347.45 "/>
  <polygon class="fil9" points="11827.73,9835.68 13379.23,10743.67 13379.23,11451.97 11827.73,10544.06 "/>
  <polygon class="fil9" points="11827.73,9032.32 13379.23,9940.2 13379.23,10648.58 11827.73,9740.66 "/>
  <path class="fil28" d="M8346.59 10304.3l243.53 0 0 62.79c0,43.75 -54.51,79.3 -121.74,79.3 -67.24,0 -121.79,-35.54 -121.79,-79.3l0 0 0 -62.79z"/>
  <path class="fil29" d="M8590.12 10304.3c0,-43.82 -54.51,-79.26 -121.74,-79.26 -67.24,0 -121.79,35.43 -121.79,79.26 0,43.71 54.55,79.19 121.79,79.19 67.23,0 121.74,-35.47 121.74,-79.19z"/>
  <path class="fil30" d="M8557.52 7161.96l0 3140.45c0,32.02 -39.94,58.01 -89.14,58.01 -49.28,0 -89.15,-25.99 -89.15,-58.01l0 -3140.45 178.29 0z"/>
  <path class="fil31" d="M8557.52 7161.96c0,-32.11 -39.94,-58.12 -89.14,-58.12 -49.28,0 -89.15,26 -89.15,58.12 0,32.01 39.87,58.01 89.15,58.01 49.2,0 89.14,-26 89.14,-58.01z"/>
  <polygon class="fil32" points="8586.73,9576.32 9886.62,10379.01 9886.62,7939.03 8543.86,7161.57 8448.35,7218.61 8586.73,9576.32 "/>
  <polygon class="fil9" points="8448,9657.01 9790.67,10434.47 9790.67,7994.38 8448,7217 "/>
  <path class="fil33" d="M8448 9657.01l0 -2440.01 1342.66 777.38 0 2440.09 -1342.66 -777.46zm93.83 -2277.24l0 2223.11 1155.01 668.75 0 -2223.15 -1155.01 -668.71 0 0z"/>
  <polygon class="fil34" points="9886.62,7939.03 9886.62,10379.01 9790.67,10434.47 9790.67,7994.38 "/>
  <path class="fil35" d="M8557.52 7161.96c0,-32.11 -39.94,-58.12 -89.14,-58.12 -49.28,0 -89.15,26 -89.15,58.12 0,32.01 39.87,58.01 89.15,58.01 49.2,0 89.14,-26 89.14,-58.01z"/>
  <path class="fil36" d="M9971.51 11116.28l0 62.8c0,43.75 -54.51,79.26 -121.74,79.26 -67.27,0 -121.75,-35.5 -121.75,-79.26l0 0 0 -62.8 243.49 0z"/>
  <path class="fil37" d="M9971.51 11116.28c0,-43.74 -54.51,-79.22 -121.74,-79.22 -67.27,0 -121.75,35.47 -121.75,79.22 0,43.75 54.48,79.19 121.75,79.19 67.23,0 121.74,-35.43 121.74,-79.19z"/>
  <path class="fil38" d="M9760.58 7973.84l178.35 0 0 3140.57c0,32.05 -39.94,58.04 -89.17,58.04 -49.28,0 -89.18,-25.99 -89.18,-58.04l0 -3140.57z"/>
  <path class="fil39" d="M9938.94 7973.84c0,-32.08 -39.94,-58.05 -89.17,-58.05 -49.28,0 -89.18,25.96 -89.18,58.05 0,32.07 39.9,58.05 89.18,58.05 49.23,0 89.17,-25.97 89.17,-58.05z"/>
  <path class="fil40" d="M9938.94 7973.84c0,-32.08 -39.94,-58.05 -89.17,-58.05 -49.28,0 -89.18,25.96 -89.18,58.05 0,32.07 39.9,58.05 89.18,58.05 49.23,0 89.17,-25.97 89.17,-58.05z"/>
  <polygon class="fil41" points="1722.09,7832.02 1722.09,8676.44 344.41,7825.7 197.72,7068.45 299.02,7008.03 "/>
  <polygon class="fil9" points="197.33,7911.18 1620.44,8735.15 1620.44,7890.74 197.33,7066.74 "/>
  <path class="fil42" d="M197.33 7911.18l0 -844.44 1423.11 824 0 844.42 -1423.11 -823.97zm68.84 -705.01l0 645.32 1285.42 744.23 0 -645.3 -1285.42 -744.25 0 0z"/>
  <polygon class="fil43" points="1722.09,7832.02 1722.09,8676.44 1620.44,8735.15 1620.44,8735.15 1620.44,7890.74 "/>
  <path class="fil44" d="M6097.95 7543.73l0 -81.52 316.18 0 0 81.52c0,56.86 -70.77,102.95 -158.1,102.95 -87.29,0 -158.09,-46.09 -158.09,-102.95z"/>
  <path class="fil45" d="M6414.13 7462.2c0,-56.82 -70.77,-102.85 -158.1,-102.85 -87.29,0 -158.09,46.03 -158.09,102.85 0,56.82 70.8,102.91 158.09,102.91 87.33,0 158.1,-46.09 158.1,-102.91l0 0z"/>
  <path class="fil46" d="M6140.26 7459.76l0 -1639.03 231.51 0 0 0 0 1639.03c0,41.61 -51.82,75.34 -115.74,75.34 -63.98,0 -115.77,-33.73 -115.77,-75.34z"/>
  <path class="fil47" d="M6371.77 5820.72c0,-41.61 -51.82,-75.37 -115.74,-75.37 -63.98,0 -115.77,33.76 -115.77,75.37 0,41.58 51.79,75.34 115.77,75.34 63.92,0 115.74,-33.76 115.74,-75.34l0 0z"/>
  <path class="fil48" d="M1894.34 5025.34l316.15 0 0 81.48c0,56.86 -70.74,102.95 -158.07,102.95 -87.32,0 -158.09,-46.09 -158.09,-102.95l0 0 0 -81.48z"/>
  <path class="fil49" d="M2210.5 5025.34c0,-56.86 -70.74,-102.88 -158.07,-102.88 -87.32,0 -158.09,46.02 -158.09,102.88 0,56.78 70.77,102.84 158.09,102.84 87.33,0 158.07,-46.06 158.07,-102.84z"/>
  <path class="fil50" d="M1936.66 5022.89l0 -1639.07 231.55 0 0 1639.07c0,41.61 -51.83,75.3 -115.78,75.3 -63.94,0 -115.77,-33.69 -115.77,-75.3z"/>
  <path class="fil51" d="M2168.21 3383.82c0,-41.62 -51.83,-75.34 -115.78,-75.34 -63.94,0 -115.77,33.72 -115.77,75.34 0,41.58 51.83,75.34 115.77,75.34 63.95,0 115.78,-33.76 115.78,-75.34l0 0z"/>
  <path class="fil52" d="M5422.47 6045.46l-0.41 0 -0.42 0c-8.8,-0.15 -17.34,-4.74 -22.02,-12.94 -7.13,-12.4 -2.86,-28.23 9.51,-35.39l816.42 -469.95c12.44,-7.16 28.27,-2.86 35.36,9.51 7.13,12.4 2.87,28.2 -9.5,35.36l-816.46 469.98c-3.92,2.3 -8.25,3.36 -12.49,3.43z"/>
  <path class="fil53" d="M5519.25 6115.03c-40.96,27.3 -81.91,65.94 -127.38,81.88 -43.19,13.63 -116.02,4.51 -136.46,-43.23 -9.12,-22.71 -7.93,-84.77 3.36,-107.53 50.11,-81.84 215.15,-148.17 292.56,-100.39 38.61,23.9 28.77,79.42 27.29,101.86 -1.36,22.44 -21.87,44.63 -59.37,67.41l0 0z"/>
  <path class="fil54" d="M5519.25 6058.18c-40.96,27.29 -81.91,65.9 -127.38,81.84 -43.19,13.66 -116.02,4.54 -136.46,-43.23 -9.12,-22.71 0,-45.43 11.32,-68.21 50.11,-81.84 179.69,-154.64 257.02,-106.93 77.33,47.81 70.55,90.99 -4.51,136.53l0 0z"/>
  <path class="fil55" d="M4299.16 5396l-0.41 0 -0.42 0c-8.84,-0.15 -17.34,-4.77 -22.09,-12.97 -7.17,-12.4 -2.87,-28.2 9.5,-35.36l816.46 -469.95c12.41,-7.16 28.24,-2.86 35.36,9.47 7.13,12.44 2.87,28.24 -9.54,35.4l-816.39 469.95c-3.99,2.3 -8.24,3.39 -12.48,3.46z"/>
  <path class="fil56" d="M4395.86 5465.58c-40.99,27.29 -81.84,65.93 -127.37,81.87 -43.23,13.63 -116.03,4.55 -136.43,-43.19 -9.12,-22.78 -7.96,-84.78 3.39,-107.53 50.04,-81.91 215.12,-148.2 292.46,-100.43 38.68,23.86 28.77,79.43 27.4,101.83 -1.44,22.51 -21.87,44.69 -59.44,67.45l0 0z"/>
  <path class="fil57" d="M4395.86 5408.72c-40.99,27.26 -81.84,65.94 -127.37,81.87 -43.23,13.67 -116.03,4.55 -136.43,-43.22 -9.12,-22.75 0,-45.51 11.32,-68.25 50.04,-81.84 179.65,-154.64 257.05,-106.86 77.26,47.77 70.49,90.96 -4.58,136.46l0 0z"/>
  <path class="fil58" d="M3175.74 4746.58l-0.41 0 -0.42 0c-8.81,-0.15 -17.34,-4.74 -22.02,-12.97 -7.13,-12.41 -2.87,-28.24 9.5,-35.36l816.43 -470.02c12.47,-7.09 28.23,-2.83 35.36,9.58 7.13,12.36 2.86,28.2 -9.47,35.36l-816.5 469.94c-3.92,2.3 -8.24,3.4 -12.48,3.47z"/>
  <path class="fil59" d="M3272.48 4816.15c-40.89,27.26 -81.84,65.94 -127.34,81.84 -43.2,13.67 -115.99,4.59 -136.46,-43.19 -9.09,-22.75 -7.93,-84.81 3.35,-107.53 50.08,-81.91 215.19,-148.17 292.57,-100.43 38.65,23.87 28.73,79.43 27.36,101.9 -1.47,22.44 -21.87,44.63 -59.47,67.41l0 0z"/>
  <path class="fil60" d="M3272.48 4759.26c-40.89,27.29 -81.84,65.94 -127.34,81.84 -43.2,13.7 -115.99,4.58 -136.46,-43.19 -9.09,-22.71 0,-45.47 11.35,-68.21 50.07,-81.88 179.65,-154.67 257.02,-106.93 77.33,47.77 70.52,90.99 -4.58,136.49l0 0z"/>
  <path class="fil61" d="M2051.98 4097.12c4.37,0 8.84,-1.16 12.89,-3.46l816.43 -469.99c12.44,-7.12 16.7,-22.92 9.54,-35.36 -7.13,-12.36 -22.96,-16.66 -35.33,-9.5l-816.42 469.94c-12.44,7.13 -16.7,22.96 -9.54,35.36 4.75,8.32 13.49,13.01 22.44,13.01l0 0z"/>
  <path class="fil62" d="M2149.16 4166.7c-40.99,27.29 -81.87,65.9 -127.41,81.84 -43.19,13.66 -116.02,4.58 -136.39,-43.2 -9.08,-22.74 -7.93,-84.77 3.39,-107.53 50.08,-81.91 215.05,-148.2 292.5,-100.42 38.61,23.9 28.76,79.42 27.33,101.86 -1.44,22.51 -21.91,44.69 -59.41,67.45l0 0z"/>
  <path class="fil63" d="M2149.16 4109.8c-40.99,27.3 -81.87,65.94 -127.41,81.88 -43.19,13.66 -116.02,4.58 -136.39,-43.23 -9.08,-22.71 0,-45.47 11.29,-68.21 50.07,-81.88 179.68,-154.67 257.01,-106.9 77.37,47.74 70.53,91 -4.51,136.46l0 0z"/>
  <polygon class="fil64" points="7055.47,3130.39 7055.47,6298.36 1633.34,3167.93 1633.34,3167.93 1453.76,106.79 1633.34,0 "/>
  <polygon class="fil9" points="1453.26,3272.66 6875.23,6403.05 6875.23,3235.1 1453.26,104.69 "/>
  <path class="fil65" d="M6875.23 3235.1l0 3167.96 -5421.97 -3130.39 0 -3167.97 5421.97 3130.4zm-5300.18 -2919.37l0 2886.55 5178.4 2989.7 0 -2886.54 -5178.4 -2989.71 0 0z"/>
  <polygon class="fil66" points="7055.47,3130.39 7055.47,6298.36 6875.23,6403.05 6875.23,3235.1 "/>
  <polygon class="fil67" points="2329.55,14161.97 2329.55,14255.98 1978.21,14460.23 -0,13302.57 -0,13302.57 0.87,13212.2 351.3,13004.31 "/>
  <polygon class="fil68" points="-0,13302.57 -0,13208.59 1978.21,14366.27 1978.21,14460.23 "/>
  <polygon class="fil69" points="1978.21,14460.23 1978.21,14366.27 2329.55,14161.97 2329.55,14255.98 "/>
  <polygon class="fil70" points="1910.45,13312.11 1910.45,14036.46 570.76,13377.98 570.76,13377.98 528.96,12696.37 685.83,12603.27 "/>
  <polygon class="fil71" points="1753.27,13403.56 1753.27,14127.84 528.58,13419 528.58,12694.73 "/>
  <polygon class="fil72" points="1910.45,13312.11 1910.45,14036.46 1753.27,14127.84 1753.27,13403.56 "/>
  <polygon class="fil73" points="2229.05,10657.81 2229.05,13570.39 677.48,12612.22 677.48,12612.22 512.32,9797.77 626.35,9729.73 "/>
  <polygon class="fil9" points="511.84,12708.46 2114.6,13636.47 2114.6,10723.85 511.84,9795.88 "/>
  <polygon class="fil74" points="511.84,12708.46 511.84,9795.88 2114.6,10723.85 2114.6,13636.47 "/>
  <polygon class="fil75" points="2229.05,10657.81 2229.05,13570.39 2114.6,13636.47 2114.6,10723.85 "/>
  <polygon class="fil76" points="522.32,12699.84 2073.97,13657.96 2073.97,10745.34 471.2,9817.37 357.17,9885.38 522.32,12699.84 "/>
  <polygon class="fil9" points="356.76,12796.04 1959.44,13724.04 1959.44,10811.46 356.76,9883.48 "/>
  <path class="fil77" d="M1959.44 10811.46l0 2912.58 -1602.69 -928 0 -2912.56 1602.69 927.98zm-1490.7 -733.65l0 2653.64 1378.66 798.29 0 -2653.68 -1378.66 -798.25 0 0z"/>
  <polygon class="fil78" points="1959.44,13724.04 1959.44,10811.46 2073.97,10745.34 2073.97,13657.96 "/>
  <polygon class="fil79" points="4355.54,9108.09 5529.14,9827.05 5067.37,8142.55 3861.86,7443.79 3790.89,7489.39 4355.54,9108.09 "/>
  <polygon class="fil80" points="3790.09,7487.89 4995.63,8186.65 5457.4,9871.15 4251.92,9172.35 3790.09,7487.89 "/>
  <polygon class="fil81" points="5457.4,9871.15 5529.14,9827.05 5067.37,8142.55 4995.63,8186.65 "/>
  <polygon class="fil82" points="3319.1,9706.42 4449.57,10452.33 4995.63,8186.65 3790.09,7487.89 3723.31,7531.08 "/>
  <polygon class="fil9" points="3177.26,9795.28 4382.76,10494.08 4928.85,8228.37 3723.38,7529.61 "/>
  <path class="fil83" d="M3723.38 7529.61l1205.47 698.76 -546.09 2265.71 -1205.5 -698.8 546.12 -2265.67zm55.38 129.47l-504.89 2094.8 1053.43 610.67 504.93 -2094.8 -1053.47 -610.67 0 0z"/>
  <polygon class="fil84" points="4382.76,10494.08 4449.57,10452.33 4995.63,8186.65 4928.85,8228.37 "/>
  <path class="fil85" d="M4625.8 9600.43c4.16,0 8.35,-1.01 12.19,-3.25l685.56 -395.78c11.67,-6.75 15.66,-21.59 8.92,-33.27 -6.72,-11.67 -21.53,-15.69 -33.23,-8.91l-685.6 395.82c-11.63,6.68 -15.65,21.55 -8.91,33.23 4.51,7.79 12.72,12.15 21.07,12.15l0 0z"/>
 </g>
</svg>
