<?xml version="1.0" encoding="utf-8"?>
<!-- Generator: Adobe Illustrator 22.1.0, SVG Export Plug-In . SVG Version: 6.00 Build 0)  -->
<svg version="1.1" id="Layer_1" xmlns="http://www.w3.org/2000/svg" xmlns:xlink="http://www.w3.org/1999/xlink" x="0px" y="0px"
	 viewBox="0 0 100 100" style="enable-background:new 0 0 100 100;" xml:space="preserve">
<style type="text/css">
	.st0{display:none;fill:#18D7FF;}
	.st1{fill:#BDDFF7;}
	.st2{fill:#004FFF;}
</style>
<rect x="30" y="30" class="st0" width="40" height="40"/>
<g>
	<path class="st1" d="M28,53.8c12.1-7,37.9-27.3,27.3-36.6c-4.3-3.3-6.9-5.2-8.2-6.1C26.9,12.6,11,29.4,11,50
		c0,5.8,1.3,11.3,3.5,16.2C18.1,61.1,23.4,56.5,28,53.8z"/>
	<path class="st1" d="M69.5,45.2C59.3,56.8,48.9,70,69.2,84C81,77.3,89,64.6,89,50c0-19.4-14.1-35.5-32.7-38.5
		C75.9,19.8,80.4,32.7,69.5,45.2z"/>
	<path class="st2" d="M39,87.4c-0.7-0.7-1.3-1.4-1.9-2.1c-0.8-1.1-1.6-2.2-2.3-3.5c-0.7-1.3-1.2-2.7-1.5-4.2
		c-0.2-0.7-0.3-1.5-0.3-2.3l0-0.6c0-0.1,0-0.2,0-0.3l0-0.3l0-0.6l0-0.6c0.1-1.3,0.3-2.5,0.6-3.6h4.7c0,0,0,0.1,0,0.1
		c-0.1,0.3-0.2,0.5-0.2,0.8c-0.3,1-0.4,2-0.4,3l0,0.4l0,0.4l0,0.2c0,0.1,0,0.1,0,0.2l0,0.4c0.1,0.5,0.2,0.9,0.3,1.4
		c0.3,0.9,0.6,1.8,1.2,2.7c0.5,0.8,1.1,1.7,1.8,2.4c0.7,0.8,1.5,1.5,2.3,2.1c0.8,0.7,1.7,1.3,2.6,1.9c0.2,0.2,0.4,0.3,0.7,0.4
		c0.2,0.1,0.5,0.3,0.7,0.4c0.5,0.3,0.9,0.6,1.4,0.8c1.3,0.7,2.6,1.4,4,2c6.1-0.4,11.7-2.1,16.7-5C48.9,70,59.3,56.8,69.5,45.2
		c11-12.5,6.5-25.4-13.1-33.7c-1.6-0.3-3.3-0.4-4.9-0.5c0.7,0.4,1.4,0.8,2.1,1.2c0.6,0.4,1.2,0.7,1.8,1.1h-0.9
		c-0.4-0.3-0.7-0.5-1.1-0.8c-0.8-0.5-1.6-1.1-2.4-1.6c-0.3,0-0.6,0-0.8,0c-1,0-2,0-2.9,0.1c1.3,0.9,3.9,2.8,8.2,6.1
		C65.9,26.5,40.1,46.8,28,53.8c-4.6,2.7-9.8,7.3-13.5,12.4C19.2,76.4,28.1,84.2,39,87.4z M67.7,25.1c0.3,0.7,0.5,1.5,0.5,2.3
		c0.2,1.4,0,2.8-0.3,4.1c-0.3,1.3-0.8,2.5-1.4,3.7c-1,1.9-2.1,3.6-3.4,5.2h-3.3c0.3-0.3,0.5-0.6,0.8-0.8c1.6-1.7,3-3.5,4.2-5.5
		c0.6-1,1.1-2,1.4-3.1c0.3-1.1,0.5-2.2,0.4-3.3c0-0.8-0.2-1.7-0.5-2.5H67.7z M56.7,15.2h1.2c0.4,0.3,0.9,0.6,1.3,1l0.7,0.5l0.7,0.6
		c0.5,0.4,0.9,0.7,1.4,1.1c0.4,0.4,0.9,0.8,1.3,1.2l1.3,1.2c0.2,0.2,0.4,0.4,0.6,0.6h-1.8l-0.9-0.9c-0.4-0.4-0.8-0.8-1.3-1.2
		c-0.4-0.4-0.9-0.8-1.3-1.2l-0.6-0.6l-0.7-0.6C58.1,16.3,57.4,15.7,56.7,15.2z M39.8,58.6c1.6-1.9,3.3-3.6,5.1-5.3
		c1.8-1.6,3.6-3.2,5.4-4.7c0.9-0.7,1.8-1.5,2.8-2.2c0.3-0.3,0.6-0.5,1-0.8h4.4c-0.3,0.3-0.7,0.7-1,1c-0.9,0.8-1.7,1.6-2.6,2.4
		c-0.9,0.8-1.7,1.5-2.6,2.3c-1.7,1.6-3.4,3.2-5,4.9c-1.6,1.7-3.1,3.4-4.5,5.2c-0.4,0.5-0.7,1-1.1,1.5h-5.1
		C37.5,61.4,38.6,60,39.8,58.6z"/>
	<path class="st1" d="M59.4,17.4l0.6,0.6c0.4,0.4,0.9,0.8,1.3,1.2c0.4,0.4,0.8,0.8,1.3,1.2l0.9,0.9h1.8c-0.2-0.2-0.4-0.4-0.6-0.6
		l-1.3-1.2c-0.4-0.4-0.9-0.8-1.3-1.2c-0.4-0.4-0.9-0.7-1.4-1.1l-0.7-0.6l-0.7-0.5c-0.4-0.3-0.9-0.6-1.3-1h-1.2
		c0.7,0.5,1.4,1.1,2,1.7L59.4,17.4z"/>
	<path class="st1" d="M53.3,12.6c0.4,0.2,0.7,0.5,1.1,0.8h0.9c-0.6-0.4-1.2-0.8-1.8-1.1c-0.7-0.4-1.4-0.8-2.1-1.2
		c-0.2,0-0.4,0-0.6,0C51.6,11.5,52.5,12,53.3,12.6z"/>
	<path class="st1" d="M47.1,86.1c-0.2-0.1-0.5-0.3-0.7-0.4c-0.2-0.1-0.5-0.3-0.7-0.4c-0.9-0.6-1.8-1.2-2.6-1.9
		c-0.8-0.7-1.6-1.4-2.3-2.1c-0.7-0.8-1.3-1.6-1.8-2.4c-0.5-0.8-0.9-1.7-1.2-2.7c-0.1-0.5-0.2-0.9-0.3-1.4l0-0.4c0-0.1,0-0.1,0-0.2
		l0-0.2l0-0.4l0-0.4c0-1,0.2-2,0.4-3c0.1-0.3,0.1-0.5,0.2-0.8c0,0,0-0.1,0-0.1h-4.7c-0.3,1.2-0.6,2.4-0.6,3.6l0,0.6l0,0.6l0,0.3
		c0,0.1,0,0.2,0,0.3l0,0.6c0.1,0.8,0.2,1.5,0.3,2.3c0.3,1.5,0.9,2.9,1.5,4.2c0.7,1.3,1.5,2.4,2.3,3.5c0.6,0.8,1.3,1.5,1.9,2.1
		c3.5,1,7.2,1.6,11,1.6c0.8,0,1.7,0,2.5-0.1c-1.4-0.6-2.7-1.3-4-2C48,86.7,47.6,86.4,47.1,86.1z"/>
	<path class="st1" d="M66.3,30.9c-0.3,1.1-0.8,2.1-1.4,3.1c-1.1,2-2.6,3.8-4.2,5.5c-0.3,0.3-0.5,0.6-0.8,0.8h3.3
		c1.3-1.6,2.4-3.3,3.4-5.2c0.6-1.2,1.1-2.4,1.4-3.7c0.3-1.3,0.5-2.7,0.3-4.1c-0.1-0.8-0.3-1.6-0.5-2.3h-1.6c0.3,0.8,0.5,1.6,0.5,2.5
		C66.8,28.7,66.6,29.9,66.3,30.9z"/>
	<path class="st1" d="M42.7,61.5c1.4-1.8,2.9-3.6,4.5-5.2c1.6-1.7,3.3-3.3,5-4.9c0.9-0.8,1.7-1.6,2.6-2.3c0.9-0.8,1.8-1.6,2.6-2.4
		c0.3-0.3,0.7-0.7,1-1H54c-0.3,0.3-0.6,0.5-1,0.8c-0.9,0.7-1.8,1.5-2.8,2.2c-1.8,1.5-3.6,3-5.4,4.7c-1.8,1.6-3.5,3.4-5.1,5.3
		c-1.2,1.4-2.3,2.8-3.3,4.4h5.1C41.9,62.5,42.3,62,42.7,61.5z"/>
</g>
</svg>
