<svg width="465" height="360" viewBox="0 0 465 360" fill="none" xmlns="http://www.w3.org/2000/svg">
<mask id="mask0" mask-type="alpha" maskUnits="userSpaceOnUse" x="0" y="0" width="465" height="361">
<path d="M0 0H465V360H0V0Z" fill="#C4C4C4"/>
</mask>
<g mask="url(#mask0)">
<mask id="mask1" mask-type="alpha" maskUnits="userSpaceOnUse" x="80" y="26" width="305" height="305">
<circle cx="232.5" cy="178.5" r="152.5" fill="#C4C4C4"/>
</mask>
<g mask="url(#mask1)">
</g>
<path opacity="0.5" d="M-3.16716 171.51L222.54 282.614C224.551 283.979 227.078 284.042 229.171 282.984L347.682 229.694C351.954 227.453 352.319 221.367 348.297 218.637L129.04 110.429C127.029 109.064 124.502 109.001 122.408 110.059L-2.55201 160.453C-6.93012 162.714 -7.18934 168.78 -3.16716 171.51Z" fill="url(#paint0_linear)" fill-opacity="0.6"/>
<path d="M35.6989 83.6289V96.4136C35.6989 98.1326 36.3432 99.7441 37.632 101.033L221.062 284.532C223.317 286.788 226.646 287.648 229.653 286.681L358.741 247.252C361.426 246.393 363.359 243.922 363.359 241.128V228.344L178.211 53.2248C175.956 50.9687 172.627 50.1092 169.62 51.0761L35.6989 83.6289Z" fill="#F8FAFC"/>
<path d="M35.5573 83.635V96.4197C35.5573 98.1387 36.2016 99.7502 37.4904 101.039L220.92 284.538C223.175 286.794 226.505 287.654 229.512 286.687L358.6 247.258C361.285 246.399 363.218 243.928 363.218 241.134V228.35L178.07 53.2309C175.814 50.9748 172.485 50.1153 169.478 51.0822L35.5573 83.635Z" fill="#ECEEF7"/>
<path d="M228.42 274.813L228.423 274.812L358.8 235.061C363.562 233.62 365.112 227.529 361.568 223.984L177.279 39.7338C175.506 37.9598 172.959 37.4083 170.639 38.0714L170.639 38.0714L170.636 38.0724L40.2604 77.7153C40.2602 77.7154 40.2601 77.7154 40.2599 77.7155C35.3851 79.1567 33.9503 85.2502 37.4908 88.792L221.78 273.15C223.553 274.924 226.1 275.476 228.42 274.813Z" fill="#F4F5FA" stroke="white" stroke-width="0.4"/>
<path d="M54.3854 111.429L71.5686 130.338L73.1795 129.693V128.726V127.867L54.278 108.958H52.6671L54.3854 111.429Z" fill="#AEB2CB"/>
<path d="M52.8628 111.057L71.6004 130.445L72.1036 130.084L72.4039 127.867L53.377 109H52.8628V111.057Z" fill="white"/>
<path d="M52.7745 111.429L71.5686 130.445L71.6759 127.867L52.6671 108.958L52.7745 111.429Z" fill="#EFF1F8"/>
<ellipse cx="120.862" cy="60.9456" rx="5.67363" ry="2.70173" fill="#D9DCEC" fill-opacity="0.6"/>
<ellipse cx="111.406" cy="63.3748" rx="2.70173" ry="1.35086" fill="#D9DCEC" fill-opacity="0.6"/>
<path d="M82.4494 106.881L71.7029 110.105C71.7029 110.105 71.166 104.731 72.7778 104.194C74.3897 103.657 80.1135 102.158 80.1135 102.158L82.4494 106.881Z" fill="#6B38F5"/>
<path d="M341.789 200.72L238.38 234.286L233.691 235.717C221.599 239.407 208.461 235.873 199.852 226.614L79.3145 107.215C75.4166 103.785 73.8658 103.828 72.5421 104.208L72.1217 104.338C72.261 104.293 72.4003 104.249 72.5421 104.208L197.471 65.6085C198.488 65.2941 199.553 65.1596 200.616 65.211C202.863 65.3196 204.991 66.2509 206.595 67.8275L341.789 200.72Z" fill="#61EFC8"/>
<ellipse cx="251.642" cy="184.894" rx="13.906" ry="6.71323" fill="#41D9AF"/>
<path d="M203.638 57.9844L80.7004 95.8017L199.34 213.844C209.47 224.137 224.593 227.733 238.272 223.101L337.141 189.628L203.638 57.9844Z" stroke="white" stroke-opacity="0.8"/>
<ellipse cx="175.876" cy="112.011" rx="13.906" ry="6.71323" fill="#41D9AF"/>
<ellipse cx="209.921" cy="150.848" rx="32.6071" ry="19.6602" fill="#41D9AF"/>
<path d="M242.029 145.095C242.029 150.281 238.541 155.06 232.721 158.569C226.91 162.072 218.851 164.255 209.922 164.255C200.993 164.255 192.934 162.072 187.124 158.569C181.304 155.06 177.815 150.281 177.815 145.095C177.815 139.91 181.304 135.131 187.124 131.622C192.934 128.118 200.993 125.935 209.922 125.935C218.851 125.935 226.91 128.118 232.721 131.622C238.541 135.131 242.029 139.91 242.029 145.095Z" stroke="white"/>
<path d="M357.093 171.997L246.368 206.959C246.368 224.644 242.743 231.632 230.544 236.689L232.462 236.082L332.814 205.626C333.045 205.555 333.262 205.482 333.484 205.387C336.238 204.215 355.699 195.13 357.093 171.997Z" fill="url(#paint1_linear)"/>
</g>
<defs>
<linearGradient id="paint0_linear" x1="352.127" y1="254.185" x2="196.936" y2="-47.7382" gradientUnits="userSpaceOnUse">
<stop stop-color="#011155"/>
<stop offset="0.606399" stop-color="#011155" stop-opacity="0.0323716"/>
</linearGradient>
<linearGradient id="paint1_linear" x1="290.784" y1="190.176" x2="302.772" y2="228.058" gradientUnits="userSpaceOnUse">
<stop offset="0.0728435" stop-color="#6B38F5"/>
<stop offset="0.908021" stop-color="#8A62F6"/>
</linearGradient>
</defs>
</svg>
