<svg width="90" height="90" viewBox="0 0 90 90" fill="none" xmlns="http://www.w3.org/2000/svg">
<mask id="mask0" mask-type="alpha" maskUnits="userSpaceOnUse" x="0" y="0" width="90" height="90">
<rect width="90" height="90" rx="45" fill="white"/>
</mask>
<g mask="url(#mask0)">
<rect width="90" height="90" rx="45" fill="white"/>
<path d="M32.3497 45.739L32.591 44.37C32.591 44.37 30.7336 43.7639 29.2224 44.8821V50.3579H30.828V45.9062C31.4682 45.3941 32.3497 45.739 32.3497 45.739Z" fill="#03435F"/>
<path d="M18.4969 42.8118L20.1025 42.5087V44.2853H21.6872V45.7065H20.1025V47.8383C20.1025 48.204 20.1655 48.4862 20.2809 48.6952C20.3964 48.9146 20.6377 49.0191 20.9945 49.0191C21.1729 49.0191 21.3409 48.9982 21.5297 48.9669C21.7081 48.9355 21.8761 48.8833 22.0335 48.8206L22.2538 50.1582C22.0545 50.2418 21.8446 50.3149 21.6032 50.3776C21.3618 50.4403 21.0785 50.4717 20.7322 50.4717C20.2914 50.4717 19.9346 50.409 19.6408 50.2836C19.3575 50.1582 19.1266 49.9805 18.9482 49.7506C18.7803 49.5312 18.6544 49.249 18.5914 48.9251C18.5179 48.6011 18.4865 48.2458 18.4865 47.8592V42.8118H18.4969Z" fill="#03435F"/>
<path d="M34.9623 49.1335C35.2561 49.1335 35.466 49.1021 35.5919 49.0394C35.7179 48.9767 35.7703 48.8618 35.7703 48.6841C35.7703 48.5483 35.6969 48.4229 35.529 48.3184C35.3716 48.2139 35.1302 48.0989 34.8049 47.9631C34.553 47.8586 34.3221 47.7645 34.1228 47.6496C33.9234 47.5451 33.745 47.4197 33.598 47.2629C33.4511 47.1166 33.3462 46.939 33.2622 46.73C33.1783 46.521 33.1468 46.2806 33.1468 45.988C33.1468 45.4237 33.3462 44.9744 33.7345 44.64C34.1332 44.316 34.6685 44.1488 35.3611 44.1488C35.7074 44.1488 36.0327 44.1802 36.358 44.2429C36.6728 44.3056 36.9247 44.3787 37.1136 44.4519L36.8302 45.779C36.6414 45.7059 36.442 45.6536 36.2216 45.6014C36.0012 45.5491 35.7598 45.5178 35.487 45.5178C34.9833 45.5178 34.7314 45.6641 34.7314 45.9671C34.7314 46.0403 34.7419 46.0925 34.7629 46.1552C34.7839 46.2075 34.8259 46.2597 34.8888 46.312C34.9518 46.3642 35.0462 46.4165 35.1512 46.4687C35.2666 46.5314 35.403 46.5941 35.5814 46.6568C35.9277 46.7927 36.2216 46.9285 36.4525 47.0644C36.6833 47.2002 36.8617 47.3465 36.9982 47.5033C37.1346 47.66 37.229 47.8272 37.2815 48.0258C37.334 48.2139 37.3654 48.4333 37.3654 48.6946C37.3654 49.2902 37.1556 49.7396 36.7358 50.0426C36.316 50.3457 35.7179 50.5024 34.9518 50.5024C34.4481 50.5024 34.0283 50.4606 33.703 50.3666C33.3672 50.2725 33.1363 50.1994 33.0104 50.1367L33.2832 48.7468C33.5561 48.8618 33.8394 48.9454 34.1228 49.0185C34.4061 49.1021 34.6789 49.1335 34.9623 49.1335Z" fill="#03435F"/>
<path d="M42.3189 46.8885C42.172 47.4737 42.0251 48.0485 41.8572 48.6232C41.6997 49.198 41.5214 49.7727 41.343 50.3579H40.0941C39.9682 50.034 39.8213 49.6578 39.6744 49.2084C39.517 48.7591 39.3701 48.2784 39.2021 47.7558C39.0447 47.2333 38.8768 46.6795 38.7089 46.0943C38.541 45.5091 38.3731 44.9239 38.2157 44.3178H39.9053C39.9577 44.5895 40.0207 44.8925 40.0941 45.2165C40.1676 45.5404 40.2306 45.8748 40.3145 46.2197C40.388 46.5645 40.4719 46.9094 40.5559 47.2542C40.6398 47.5991 40.7238 47.9335 40.8077 48.2575C40.9022 47.9231 40.9966 47.5782 41.0806 47.2229C41.1646 46.8676 41.259 46.5227 41.343 46.1883C41.4269 45.8435 41.5109 45.5195 41.5843 45.1956C41.6578 44.8821 41.7207 44.579 41.7837 44.3073H42.9486C43.0115 44.579 43.0745 44.8821 43.1479 45.1956C43.2214 45.5091 43.2949 45.8435 43.3788 46.1883C43.4523 46.5332 43.5362 46.878 43.6202 47.2229C43.7041 47.5782 43.7986 47.9231 43.893 48.2575C43.977 47.9335 44.0714 47.5991 44.1554 47.2542C44.2393 46.9094 44.3233 46.5645 44.3967 46.2197C44.4702 45.8748 44.5437 45.5404 44.6171 45.2165C44.6906 44.8925 44.7535 44.5895 44.806 44.3178H46.4746C46.3172 44.9134 46.1493 45.5091 45.9814 46.0943C45.8134 46.6795 45.6455 47.2333 45.4881 47.7558C45.3307 48.2784 45.1733 48.7695 45.0159 49.2084C44.8585 49.6473 44.7221 50.034 44.5856 50.3579H43.3368C43.1584 49.7727 42.98 49.198 42.8121 48.6232C42.6127 48.0485 42.4658 47.4737 42.3189 46.8885Z" fill="#03435F"/>
<path d="M47.5974 50.3579H49.1925V44.3178H47.5974V50.3579Z" fill="#03435F"/>
<path d="M50.4728 42.8112L52.0784 42.5082V44.316H53.663V45.7372H52.0784V47.869C52.0784 48.2243 52.1413 48.5169 52.2568 48.7259C52.3722 48.9454 52.6136 49.0499 52.9704 49.0499C53.1488 49.0499 53.3272 49.0394 53.5056 48.9976C53.6945 48.9663 53.8519 48.914 54.0093 48.8513L54.2297 50.1889C54.0303 50.2725 53.8204 50.3457 53.579 50.4084C53.3377 50.4711 53.0543 50.5024 52.708 50.5024C52.2673 50.5024 51.9105 50.4397 51.6166 50.3143C51.3333 50.1889 51.1024 50.0113 50.924 49.7814C50.7561 49.5619 50.6302 49.2798 50.5672 48.9663C50.4938 48.6423 50.4623 48.287 50.4623 47.9004V42.8112H50.4728Z" fill="#03435F"/>
<path d="M54.7965 47.3376C54.7965 46.8987 54.8595 46.4912 54.9959 46.1045C55.1323 45.7179 55.3212 45.3835 55.5731 45.0909C55.8249 44.7983 56.1293 44.5788 56.4861 44.4116C56.8429 44.2444 57.2521 44.1608 57.7139 44.1608C58.0182 44.1608 58.291 44.1922 58.5429 44.2444C58.7948 44.3071 59.0361 44.3803 59.2775 44.4952L58.9417 45.8642C58.7948 45.8015 58.6268 45.7492 58.4484 45.7074C58.27 45.6656 58.0707 45.6343 57.8398 45.6343C57.3676 45.6343 57.0108 45.791 56.7799 46.1045C56.549 46.418 56.4336 46.836 56.4336 47.3481C56.4336 47.8915 56.5385 48.3095 56.7589 48.6125C56.9793 48.9156 57.3571 49.0619 57.9028 49.0619C58.1021 49.0619 58.3015 49.041 58.5324 48.9992C58.7528 48.9574 58.9627 48.9051 59.1515 48.8111L59.3719 50.2114C59.183 50.295 58.9522 50.3682 58.6688 50.4309C58.3855 50.4936 58.0812 50.5249 57.7453 50.5249C57.2311 50.5249 56.7799 50.4413 56.4126 50.2741C56.0348 50.1069 55.7305 49.8874 55.4891 49.6053C55.2478 49.3231 55.0694 48.9887 54.9644 48.6021C54.849 48.2154 54.7965 47.787 54.7965 47.3376Z" fill="#03435F"/>
<path d="M60.4106 50.3579V42.813L62.0162 42.5099V44.3491C62.1212 44.3073 62.2576 44.276 62.436 44.2446C62.6039 44.2133 62.7718 44.1924 62.9292 44.1924C63.391 44.1924 63.7687 44.2551 64.0731 44.3909C64.3774 44.5268 64.6188 44.7149 64.8077 44.9552C64.9966 45.1956 65.1225 45.4882 65.1959 45.8226C65.2694 46.157 65.3114 46.5332 65.3114 46.9512V50.3579H63.7058V47.1602C63.7058 46.6063 63.6428 46.2197 63.5064 45.9898C63.37 45.7599 63.1286 45.6449 62.7718 45.6449C62.6249 45.6449 62.4885 45.6554 62.3625 45.6867C62.2366 45.7181 62.1212 45.739 62.0267 45.7703V50.3579H60.4106Z" fill="#03435F"/>
<path d="M12.0225 50.3579V44.8821C12.0225 44.8821 12.8305 44.1924 14.5935 44.1924C16.1991 44.1924 17.0806 45.0493 17.0806 46.9303V50.3579H15.475V46.9407C15.475 45.739 14.9083 45.6554 14.4361 45.6554C13.9534 45.6554 13.6281 45.9062 13.6281 45.9062V50.3579H12.0225Z" fill="#03435F"/>
<path d="M9 50.3579V42.813L10.6056 42.5099V50.3579H9Z" fill="#03435F"/>
<path d="M27.9629 47.7748H24.3529C24.3529 47.7748 24.4369 49.0601 26.0425 49.0601C26.8506 49.0601 27.6481 48.8093 27.6481 48.8093L27.8055 50.1783C27.8055 50.1783 27.008 50.5127 25.8851 50.5127C24.2795 50.5127 22.8313 49.6558 22.8313 47.2627C22.8313 45.3817 23.9542 44.18 25.5598 44.18C27.9629 44.18 28.1203 46.7402 27.9629 47.7748ZM25.4758 45.3713C24.4369 45.3713 24.3529 46.573 24.3529 46.573H26.5987C26.5987 46.573 26.5147 45.3713 25.4758 45.3713Z" fill="#03435F"/>
<mask id="mask1" mask-type="alpha" maskUnits="userSpaceOnUse" x="67" y="41" width="11" height="14">
<path d="M67.4314 42.5087C67.4314 42.143 72.0488 41.3592 75.1446 41.3592C76.4878 41.3592 77.5477 41.5055 77.8101 41.9026C79.2058 43.7314 69.3938 55.2369 68.5753 54.8816C67.9246 54.7039 73.8118 47.3889 72.8254 44.4211C72.3322 42.8536 67.4314 43.0312 67.4314 42.5087Z" fill="white"/>
</mask>
<g mask="url(#mask1)">
<path d="M64.7343 57.5762H80.6434V38.672H64.7343V57.5762Z" fill="#ED342B"/>
</g>
<path d="M77.9462 40.2218C79.117 40.2218 80.066 39.2767 80.066 38.1109C80.066 36.9451 79.117 36 77.9462 36C76.7755 36 75.8264 36.9451 75.8264 38.1109C75.8264 39.2767 76.7755 40.2218 77.9462 40.2218Z" fill="#ED342B"/>
</g>
</svg>
