<?xml version="1.0" encoding="utf-8"?>
<!-- Generator: Adobe Illustrator 22.1.0, SVG Export Plug-In . SVG Version: 6.00 Build 0)  -->
<svg version="1.1" id="Layer_1" xmlns="http://www.w3.org/2000/svg" xmlns:xlink="http://www.w3.org/1999/xlink" x="0px" y="0px"
	 viewBox="0 0 100 100" style="enable-background:new 0 0 100 100;" xml:space="preserve">
<style type="text/css">
	.st0{display:none;fill:#18D7FF;}
	.st1{fill:#BDDFF7;}
	.st2{fill:#004FFF;}
</style>
<rect x="30" y="30" class="st0" width="40" height="40"/>
<g>
	<path class="st1" d="M76.9,21.8c-2.2-2.1-4.5-3.9-7.1-5.4c-4.1-2.4-8.6-4.1-13.4-4.9c-1.6-0.3-3.3-0.4-4.9-0.5c-0.2,0-0.4,0-0.6,0
		c-0.3,0-0.6,0-0.8,0c-1,0-2,0-2.9,0.1C26.9,12.6,11,29.4,11,50c0,5.8,1.3,11.3,3.5,16.2c4.3,9.5,12.4,16.9,22.3,20.5
		c0.7,0.3,1.4,0.5,2.2,0.7c1.1,0.3,2.3,0.6,3.4,0.8c2.5,0.5,5,0.7,7.6,0.7c0.8,0,1.7,0,2.5-0.1c6.1-0.4,11.7-2.1,16.7-5
		c1.6-0.9,3-1.9,4.4-2.9c2.5-1.9,4.8-4.1,6.8-6.6C85.8,67.7,89,59.2,89,50C89,38.9,84.4,28.9,76.9,21.8z"/>
	<g>
		<g>
			<g>
				<path class="st2" d="M50.2,19.5c-12.9,0.3-23.3,11.1-23,24c0.3,12.6,21.9,37.5,23,38.2c0.3,0.3,1,0.6,1.3,0.6
					c0.7,0,1-0.4,1.3-0.7c1-0.7,21.3-26.5,21.1-39C73.9,29.6,63.1,19.3,50.2,19.5z M50.9,53.6c-6,0.1-11-4.7-11.1-10.7
					s4.7-11,10.7-11.1s11,4.7,11.1,10.7S56.8,53.5,50.9,53.6z"/>
			</g>
		</g>
	</g>
</g>
</svg>
